  0
SECTION
  2
BLOCKS
  0
ENDSEC
  0
SECTION
  2
ENTITIES
  0
LINE
  8
0
 10
-237.25
 11
-237.25
 20
-201
 21
201
  0
LINE
  8
0
 10
-237.25
 11
-237.212
 20
201
 21
201.872
  0
LINE
  8
0
 10
-237.212
 11
-237.098
 20
201.872
 21
202.736
  0
LINE
  8
0
 10
-237.098
 11
-236.909
 20
202.736
 21
203.588
  0
LINE
  8
0
 10
-236.909
 11
-236.647
 20
203.588
 21
204.42
  0
LINE
  8
0
 10
-236.647
 11
-236.313
 20
204.42
 21
205.226
  0
LINE
  8
0
 10
-236.313
 11
-235.91
 20
205.226
 21
206
  0
LINE
  8
0
 10
-235.91
 11
-235.442
 20
206
 21
206.736
  0
LINE
  8
0
 10
-235.442
 11
-234.91
 20
206.736
 21
207.428
  0
LINE
  8
0
 10
-234.91
 11
-234.321
 20
207.428
 21
208.071
  0
LINE
  8
0
 10
-234.321
 11
-233.678
 20
208.071
 21
208.66
  0
LINE
  8
0
 10
-233.678
 11
-232.986
 20
208.66
 21
209.192
  0
LINE
  8
0
 10
-232.986
 11
-232.25
 20
209.192
 21
209.66
  0
LINE
  8
0
 10
-232.25
 11
-231.476
 20
209.66
 21
210.063
  0
LINE
  8
0
 10
-231.476
 11
-230.67
 20
210.063
 21
210.397
  0
LINE
  8
0
 10
-230.67
 11
-229.838
 20
210.397
 21
210.659
  0
LINE
  8
0
 10
-229.838
 11
-228.986
 20
210.659
 21
210.848
  0
LINE
  8
0
 10
-228.986
 11
-228.122
 20
210.848
 21
210.962
  0
LINE
  8
0
 10
-228.122
 11
-227.25
 20
210.962
 21
211
  0
LINE
  8
0
 10
-227.25
 11
227.25
 20
211
 21
211
  0
LINE
  8
0
 10
227.25
 11
228.122
 20
211
 21
210.962
  0
LINE
  8
0
 10
228.122
 11
228.986
 20
210.962
 21
210.848
  0
LINE
  8
0
 10
228.986
 11
229.838
 20
210.848
 21
210.659
  0
LINE
  8
0
 10
229.838
 11
230.67
 20
210.659
 21
210.397
  0
LINE
  8
0
 10
230.67
 11
231.476
 20
210.397
 21
210.063
  0
LINE
  8
0
 10
231.476
 11
232.25
 20
210.063
 21
209.66
  0
LINE
  8
0
 10
232.25
 11
232.986
 20
209.66
 21
209.192
  0
LINE
  8
0
 10
232.986
 11
233.678
 20
209.192
 21
208.66
  0
LINE
  8
0
 10
233.678
 11
234.321
 20
208.66
 21
208.071
  0
LINE
  8
0
 10
234.321
 11
234.91
 20
208.071
 21
207.428
  0
LINE
  8
0
 10
234.91
 11
235.442
 20
207.428
 21
206.736
  0
LINE
  8
0
 10
235.442
 11
235.91
 20
206.736
 21
206
  0
LINE
  8
0
 10
235.91
 11
236.313
 20
206
 21
205.226
  0
LINE
  8
0
 10
236.313
 11
236.647
 20
205.226
 21
204.42
  0
LINE
  8
0
 10
236.647
 11
236.909
 20
204.42
 21
203.588
  0
LINE
  8
0
 10
236.909
 11
237.098
 20
203.588
 21
202.736
  0
LINE
  8
0
 10
237.098
 11
237.212
 20
202.736
 21
201.872
  0
LINE
  8
0
 10
237.212
 11
237.25
 20
201.872
 21
201
  0
LINE
  8
0
 10
237.25
 11
237.25
 20
201
 21
-201
  0
LINE
  8
0
 10
237.25
 11
237.212
 20
-201
 21
-201.872
  0
LINE
  8
0
 10
237.212
 11
237.098
 20
-201.872
 21
-202.736
  0
LINE
  8
0
 10
237.098
 11
236.909
 20
-202.736
 21
-203.588
  0
LINE
  8
0
 10
236.909
 11
236.647
 20
-203.588
 21
-204.42
  0
LINE
  8
0
 10
236.647
 11
236.313
 20
-204.42
 21
-205.226
  0
LINE
  8
0
 10
236.313
 11
235.91
 20
-205.226
 21
-206
  0
LINE
  8
0
 10
235.91
 11
235.442
 20
-206
 21
-206.736
  0
LINE
  8
0
 10
235.442
 11
234.91
 20
-206.736
 21
-207.428
  0
LINE
  8
0
 10
234.91
 11
234.321
 20
-207.428
 21
-208.071
  0
LINE
  8
0
 10
234.321
 11
233.678
 20
-208.071
 21
-208.66
  0
LINE
  8
0
 10
233.678
 11
232.986
 20
-208.66
 21
-209.192
  0
LINE
  8
0
 10
232.986
 11
232.25
 20
-209.192
 21
-209.66
  0
LINE
  8
0
 10
232.25
 11
231.476
 20
-209.66
 21
-210.063
  0
LINE
  8
0
 10
231.476
 11
230.67
 20
-210.063
 21
-210.397
  0
LINE
  8
0
 10
230.67
 11
229.838
 20
-210.397
 21
-210.659
  0
LINE
  8
0
 10
229.838
 11
228.986
 20
-210.659
 21
-210.848
  0
LINE
  8
0
 10
228.986
 11
228.122
 20
-210.848
 21
-210.962
  0
LINE
  8
0
 10
228.122
 11
227.25
 20
-210.962
 21
-211
  0
LINE
  8
0
 10
227.25
 11
-227.25
 20
-211
 21
-211
  0
LINE
  8
0
 10
-227.25
 11
-228.122
 20
-211
 21
-210.962
  0
LINE
  8
0
 10
-228.122
 11
-228.986
 20
-210.962
 21
-210.848
  0
LINE
  8
0
 10
-228.986
 11
-229.838
 20
-210.848
 21
-210.659
  0
LINE
  8
0
 10
-229.838
 11
-230.67
 20
-210.659
 21
-210.397
  0
LINE
  8
0
 10
-230.67
 11
-231.476
 20
-210.397
 21
-210.063
  0
LINE
  8
0
 10
-231.476
 11
-232.25
 20
-210.063
 21
-209.66
  0
LINE
  8
0
 10
-232.25
 11
-232.986
 20
-209.66
 21
-209.192
  0
LINE
  8
0
 10
-232.986
 11
-233.678
 20
-209.192
 21
-208.66
  0
LINE
  8
0
 10
-233.678
 11
-234.321
 20
-208.66
 21
-208.071
  0
LINE
  8
0
 10
-234.321
 11
-234.91
 20
-208.071
 21
-207.428
  0
LINE
  8
0
 10
-234.91
 11
-235.442
 20
-207.428
 21
-206.736
  0
LINE
  8
0
 10
-235.442
 11
-235.91
 20
-206.736
 21
-206
  0
LINE
  8
0
 10
-235.91
 11
-236.313
 20
-206
 21
-205.226
  0
LINE
  8
0
 10
-236.313
 11
-236.647
 20
-205.226
 21
-204.42
  0
LINE
  8
0
 10
-236.647
 11
-236.909
 20
-204.42
 21
-203.588
  0
LINE
  8
0
 10
-236.909
 11
-237.098
 20
-203.588
 21
-202.736
  0
LINE
  8
0
 10
-237.098
 11
-237.212
 20
-202.736
 21
-201.872
  0
LINE
  8
0
 10
-237.212
 11
-237.25
 20
-201.872
 21
-201
  0
LINE
  8
0
 10
-218.572
 11
-218.572
 20
64.454
 21
64.946
  0
LINE
  8
0
 10
-218.572
 11
-218.427
 20
64.946
 21
65.416
  0
LINE
  8
0
 10
-218.427
 11
-218.15
 20
65.416
 21
65.822
  0
LINE
  8
0
 10
-218.15
 11
-217.765
 20
65.822
 21
66.129
  0
LINE
  8
0
 10
-217.765
 11
-217.307
 20
66.129
 21
66.309
  0
LINE
  8
0
 10
-217.307
 11
-216.817
 20
66.309
 21
66.345
  0
LINE
  8
0
 10
-216.817
 11
-216.337
 20
66.345
 21
66.236
  0
LINE
  8
0
 10
-216.337
 11
-215.911
 20
66.236
 21
65.99
  0
LINE
  8
0
 10
-215.911
 11
-215.577
 20
65.99
 21
65.629
  0
LINE
  8
0
 10
-215.577
 11
-215.363
 20
65.629
 21
65.186
  0
LINE
  8
0
 10
-215.363
 11
-215.29
 20
65.186
 21
64.7
  0
LINE
  8
0
 10
-215.29
 11
-215.363
 20
64.7
 21
64.214
  0
LINE
  8
0
 10
-215.363
 11
-215.577
 20
64.214
 21
63.771
  0
LINE
  8
0
 10
-215.577
 11
-215.911
 20
63.771
 21
63.41
  0
LINE
  8
0
 10
-215.911
 11
-216.337
 20
63.41
 21
63.164
  0
LINE
  8
0
 10
-216.337
 11
-216.817
 20
63.164
 21
63.055
  0
LINE
  8
0
 10
-216.817
 11
-217.307
 20
63.055
 21
63.091
  0
LINE
  8
0
 10
-217.307
 11
-217.765
 20
63.091
 21
63.271
  0
LINE
  8
0
 10
-217.765
 11
-218.15
 20
63.271
 21
63.578
  0
LINE
  8
0
 10
-218.15
 11
-218.427
 20
63.578
 21
63.984
  0
LINE
  8
0
 10
-218.427
 11
-218.572
 20
63.984
 21
64.454
  0
LINE
  8
0
 10
-208.742
 11
-208.742
 20
-0.246
 21
0.246
  0
LINE
  8
0
 10
-208.742
 11
-208.682
 20
0.246
 21
0.735
  0
LINE
  8
0
 10
-208.682
 11
-208.562
 20
0.735
 21
1.213
  0
LINE
  8
0
 10
-208.562
 11
-208.384
 20
1.213
 21
1.672
  0
LINE
  8
0
 10
-208.384
 11
-208.151
 20
1.672
 21
2.106
  0
LINE
  8
0
 10
-208.151
 11
-207.866
 20
2.106
 21
2.508
  0
LINE
  8
0
 10
-207.866
 11
-207.535
 20
2.508
 21
2.872
  0
LINE
  8
0
 10
-207.535
 11
-207.161
 20
2.872
 21
3.192
  0
LINE
  8
0
 10
-207.161
 11
-206.75
 20
3.192
 21
3.464
  0
LINE
  8
0
 10
-206.75
 11
-206.309
 20
3.464
 21
3.684
  0
LINE
  8
0
 10
-206.309
 11
-205.845
 20
3.684
 21
3.847
  0
LINE
  8
0
 10
-205.845
 11
-205.364
 20
3.847
 21
3.953
  0
LINE
  8
0
 10
-205.364
 11
-204.873
 20
3.953
 21
3.998
  0
LINE
  8
0
 10
-204.873
 11
-204.381
 20
3.998
 21
3.983
  0
LINE
  8
0
 10
-204.381
 11
-203.894
 20
3.983
 21
3.907
  0
LINE
  8
0
 10
-203.894
 11
-203.421
 20
3.907
 21
3.773
  0
LINE
  8
0
 10
-203.421
 11
-202.967
 20
3.773
 21
3.581
  0
LINE
  8
0
 10
-202.967
 11
-202.541
 20
3.581
 21
3.334
  0
LINE
  8
0
 10
-202.541
 11
-202.148
 20
3.334
 21
3.038
  0
LINE
  8
0
 10
-202.148
 11
-201.794
 20
3.038
 21
2.695
  0
LINE
  8
0
 10
-201.794
 11
-201.485
 20
2.695
 21
2.311
  0
LINE
  8
0
 10
-201.485
 11
-201.226
 20
2.311
 21
1.892
  0
LINE
  8
0
 10
-201.226
 11
-201.02
 20
1.892
 21
1.445
  0
LINE
  8
0
 10
-201.02
 11
-200.871
 20
1.445
 21
0.976
  0
LINE
  8
0
 10
-200.871
 11
-200.78
 20
0.976
 21
0.492
  0
LINE
  8
0
 10
-200.78
 11
-200.75
 20
0.492
 21
0
  0
LINE
  8
0
 10
-200.75
 11
-200.78
 20
0
 21
-0.492
  0
LINE
  8
0
 10
-200.78
 11
-200.871
 20
-0.492
 21
-0.976
  0
LINE
  8
0
 10
-200.871
 11
-201.02
 20
-0.976
 21
-1.445
  0
LINE
  8
0
 10
-201.02
 11
-201.226
 20
-1.445
 21
-1.892
  0
LINE
  8
0
 10
-201.226
 11
-201.485
 20
-1.892
 21
-2.311
  0
LINE
  8
0
 10
-201.485
 11
-201.794
 20
-2.311
 21
-2.695
  0
LINE
  8
0
 10
-201.794
 11
-202.148
 20
-2.695
 21
-3.038
  0
LINE
  8
0
 10
-202.148
 11
-202.541
 20
-3.038
 21
-3.334
  0
LINE
  8
0
 10
-202.541
 11
-202.967
 20
-3.334
 21
-3.581
  0
LINE
  8
0
 10
-202.967
 11
-203.421
 20
-3.581
 21
-3.773
  0
LINE
  8
0
 10
-203.421
 11
-203.894
 20
-3.773
 21
-3.907
  0
LINE
  8
0
 10
-203.894
 11
-204.381
 20
-3.907
 21
-3.983
  0
LINE
  8
0
 10
-204.381
 11
-204.873
 20
-3.983
 21
-3.998
  0
LINE
  8
0
 10
-204.873
 11
-205.364
 20
-3.998
 21
-3.953
  0
LINE
  8
0
 10
-205.364
 11
-205.845
 20
-3.953
 21
-3.847
  0
LINE
  8
0
 10
-205.845
 11
-206.309
 20
-3.847
 21
-3.684
  0
LINE
  8
0
 10
-206.309
 11
-206.75
 20
-3.684
 21
-3.464
  0
LINE
  8
0
 10
-206.75
 11
-207.161
 20
-3.464
 21
-3.192
  0
LINE
  8
0
 10
-207.161
 11
-207.535
 20
-3.192
 21
-2.872
  0
LINE
  8
0
 10
-207.535
 11
-207.866
 20
-2.872
 21
-2.508
  0
LINE
  8
0
 10
-207.866
 11
-208.151
 20
-2.508
 21
-2.106
  0
LINE
  8
0
 10
-208.151
 11
-208.384
 20
-2.106
 21
-1.672
  0
LINE
  8
0
 10
-208.384
 11
-208.562
 20
-1.672
 21
-1.213
  0
LINE
  8
0
 10
-208.562
 11
-208.682
 20
-1.213
 21
-0.735
  0
LINE
  8
0
 10
-208.682
 11
-208.742
 20
-0.735
 21
-0.246
  0
LINE
  8
0
 10
-164.695
 11
-164.659
 20
190.567
 21
191.057
  0
LINE
  8
0
 10
-164.659
 11
-164.479
 20
191.057
 21
191.515
  0
LINE
  8
0
 10
-164.479
 11
-164.172
 20
191.515
 21
191.9
  0
LINE
  8
0
 10
-164.172
 11
-163.766
 20
191.9
 21
192.177
  0
LINE
  8
0
 10
-163.766
 11
-163.296
 20
192.177
 21
192.322
  0
LINE
  8
0
 10
-163.296
 11
-162.804
 20
192.322
 21
192.322
  0
LINE
  8
0
 10
-162.804
 11
-162.334
 20
192.322
 21
192.177
  0
LINE
  8
0
 10
-162.334
 11
-161.928
 20
192.177
 21
191.9
  0
LINE
  8
0
 10
-161.928
 11
-161.621
 20
191.9
 21
191.515
  0
LINE
  8
0
 10
-161.621
 11
-161.441
 20
191.515
 21
191.057
  0
LINE
  8
0
 10
-161.441
 11
-161.405
 20
191.057
 21
190.567
  0
LINE
  8
0
 10
-161.405
 11
-161.514
 20
190.567
 21
190.087
  0
LINE
  8
0
 10
-161.514
 11
-161.76
 20
190.087
 21
189.661
  0
LINE
  8
0
 10
-161.76
 11
-162.121
 20
189.661
 21
189.327
  0
LINE
  8
0
 10
-162.121
 11
-162.564
 20
189.327
 21
189.113
  0
LINE
  8
0
 10
-162.564
 11
-163.05
 20
189.113
 21
189.04
  0
LINE
  8
0
 10
-163.05
 11
-163.536
 20
189.04
 21
189.113
  0
LINE
  8
0
 10
-163.536
 11
-163.979
 20
189.113
 21
189.327
  0
LINE
  8
0
 10
-163.979
 11
-164.34
 20
189.327
 21
189.661
  0
LINE
  8
0
 10
-164.34
 11
-164.586
 20
189.661
 21
190.087
  0
LINE
  8
0
 10
-164.586
 11
-164.695
 20
190.087
 21
190.567
  0
LINE
  8
0
 10
-153.192
 11
-153.192
 20
64.454
 21
64.946
  0
LINE
  8
0
 10
-153.192
 11
-153.047
 20
64.946
 21
65.416
  0
LINE
  8
0
 10
-153.047
 11
-152.77
 20
65.416
 21
65.822
  0
LINE
  8
0
 10
-152.77
 11
-152.385
 20
65.822
 21
66.129
  0
LINE
  8
0
 10
-152.385
 11
-151.927
 20
66.129
 21
66.309
  0
LINE
  8
0
 10
-151.927
 11
-151.437
 20
66.309
 21
66.345
  0
LINE
  8
0
 10
-151.437
 11
-150.957
 20
66.345
 21
66.236
  0
LINE
  8
0
 10
-150.957
 11
-150.531
 20
66.236
 21
65.99
  0
LINE
  8
0
 10
-150.531
 11
-150.197
 20
65.99
 21
65.629
  0
LINE
  8
0
 10
-150.197
 11
-149.983
 20
65.629
 21
65.186
  0
LINE
  8
0
 10
-149.983
 11
-149.91
 20
65.186
 21
64.7
  0
LINE
  8
0
 10
-149.91
 11
-149.983
 20
64.7
 21
64.214
  0
LINE
  8
0
 10
-149.983
 11
-150.197
 20
64.214
 21
63.771
  0
LINE
  8
0
 10
-150.197
 11
-150.531
 20
63.771
 21
63.41
  0
LINE
  8
0
 10
-150.531
 11
-150.957
 20
63.41
 21
63.164
  0
LINE
  8
0
 10
-150.957
 11
-151.437
 20
63.164
 21
63.055
  0
LINE
  8
0
 10
-151.437
 11
-151.927
 20
63.055
 21
63.091
  0
LINE
  8
0
 10
-151.927
 11
-152.385
 20
63.091
 21
63.271
  0
LINE
  8
0
 10
-152.385
 11
-152.77
 20
63.271
 21
63.578
  0
LINE
  8
0
 10
-152.77
 11
-153.047
 20
63.578
 21
63.984
  0
LINE
  8
0
 10
-153.047
 11
-153.192
 20
63.984
 21
64.454
  0
LINE
  8
0
 10
-105.895
 11
-105.786
 20
-202.377
 21
-201.897
  0
LINE
  8
0
 10
-105.786
 11
-105.54
 20
-201.897
 21
-201.471
  0
LINE
  8
0
 10
-105.54
 11
-105.179
 20
-201.471
 21
-201.137
  0
LINE
  8
0
 10
-105.179
 11
-104.736
 20
-201.137
 21
-200.923
  0
LINE
  8
0
 10
-104.736
 11
-104.25
 20
-200.923
 21
-200.85
  0
LINE
  8
0
 10
-104.25
 11
-103.764
 20
-200.85
 21
-200.923
  0
LINE
  8
0
 10
-103.764
 11
-103.321
 20
-200.923
 21
-201.137
  0
LINE
  8
0
 10
-103.321
 11
-102.96
 20
-201.137
 21
-201.471
  0
LINE
  8
0
 10
-102.96
 11
-102.714
 20
-201.471
 21
-201.897
  0
LINE
  8
0
 10
-102.714
 11
-102.605
 20
-201.897
 21
-202.377
  0
LINE
  8
0
 10
-102.605
 11
-102.641
 20
-202.377
 21
-202.867
  0
LINE
  8
0
 10
-102.641
 11
-102.821
 20
-202.867
 21
-203.325
  0
LINE
  8
0
 10
-102.821
 11
-103.128
 20
-203.325
 21
-203.71
  0
LINE
  8
0
 10
-103.128
 11
-103.534
 20
-203.71
 21
-203.987
  0
LINE
  8
0
 10
-103.534
 11
-104.004
 20
-203.987
 21
-204.132
  0
LINE
  8
0
 10
-104.004
 11
-104.496
 20
-204.132
 21
-204.132
  0
LINE
  8
0
 10
-104.496
 11
-104.966
 20
-204.132
 21
-203.987
  0
LINE
  8
0
 10
-104.966
 11
-105.372
 20
-203.987
 21
-203.71
  0
LINE
  8
0
 10
-105.372
 11
-105.679
 20
-203.71
 21
-203.325
  0
LINE
  8
0
 10
-105.679
 11
-105.859
 20
-203.325
 21
-202.867
  0
LINE
  8
0
 10
-105.859
 11
-105.895
 20
-202.867
 21
-202.377
  0
LINE
  8
0
 10
-105.895
 11
-105.786
 20
202.623
 21
203.103
  0
LINE
  8
0
 10
-105.786
 11
-105.54
 20
203.103
 21
203.529
  0
LINE
  8
0
 10
-105.54
 11
-105.179
 20
203.529
 21
203.863
  0
LINE
  8
0
 10
-105.179
 11
-104.736
 20
203.863
 21
204.077
  0
LINE
  8
0
 10
-104.736
 11
-104.25
 20
204.077
 21
204.15
  0
LINE
  8
0
 10
-104.25
 11
-103.764
 20
204.15
 21
204.077
  0
LINE
  8
0
 10
-103.764
 11
-103.321
 20
204.077
 21
203.863
  0
LINE
  8
0
 10
-103.321
 11
-102.96
 20
203.863
 21
203.529
  0
LINE
  8
0
 10
-102.96
 11
-102.714
 20
203.529
 21
203.103
  0
LINE
  8
0
 10
-102.714
 11
-102.605
 20
203.103
 21
202.623
  0
LINE
  8
0
 10
-102.605
 11
-102.641
 20
202.623
 21
202.133
  0
LINE
  8
0
 10
-102.641
 11
-102.821
 20
202.133
 21
201.675
  0
LINE
  8
0
 10
-102.821
 11
-103.128
 20
201.675
 21
201.29
  0
LINE
  8
0
 10
-103.128
 11
-103.534
 20
201.29
 21
201.013
  0
LINE
  8
0
 10
-103.534
 11
-104.004
 20
201.013
 21
200.868
  0
LINE
  8
0
 10
-104.004
 11
-104.496
 20
200.868
 21
200.868
  0
LINE
  8
0
 10
-104.496
 11
-104.966
 20
200.868
 21
201.013
  0
LINE
  8
0
 10
-104.966
 11
-105.372
 20
201.013
 21
201.29
  0
LINE
  8
0
 10
-105.372
 11
-105.679
 20
201.29
 21
201.675
  0
LINE
  8
0
 10
-105.679
 11
-105.859
 20
201.675
 21
202.133
  0
LINE
  8
0
 10
-105.859
 11
-105.895
 20
202.133
 21
202.623
  0
LINE
  8
0
 10
-70.895
 11
-70.786
 20
-202.377
 21
-201.897
  0
LINE
  8
0
 10
-70.786
 11
-70.54
 20
-201.897
 21
-201.471
  0
LINE
  8
0
 10
-70.54
 11
-70.179
 20
-201.471
 21
-201.137
  0
LINE
  8
0
 10
-70.179
 11
-69.736
 20
-201.137
 21
-200.923
  0
LINE
  8
0
 10
-69.736
 11
-69.25
 20
-200.923
 21
-200.85
  0
LINE
  8
0
 10
-69.25
 11
-68.764
 20
-200.85
 21
-200.923
  0
LINE
  8
0
 10
-68.764
 11
-68.321
 20
-200.923
 21
-201.137
  0
LINE
  8
0
 10
-68.321
 11
-67.96
 20
-201.137
 21
-201.471
  0
LINE
  8
0
 10
-67.96
 11
-67.714
 20
-201.471
 21
-201.897
  0
LINE
  8
0
 10
-67.714
 11
-67.605
 20
-201.897
 21
-202.377
  0
LINE
  8
0
 10
-67.605
 11
-67.641
 20
-202.377
 21
-202.867
  0
LINE
  8
0
 10
-67.641
 11
-67.821
 20
-202.867
 21
-203.325
  0
LINE
  8
0
 10
-67.821
 11
-68.128
 20
-203.325
 21
-203.71
  0
LINE
  8
0
 10
-68.128
 11
-68.534
 20
-203.71
 21
-203.987
  0
LINE
  8
0
 10
-68.534
 11
-69.004
 20
-203.987
 21
-204.132
  0
LINE
  8
0
 10
-69.004
 11
-69.496
 20
-204.132
 21
-204.132
  0
LINE
  8
0
 10
-69.496
 11
-69.966
 20
-204.132
 21
-203.987
  0
LINE
  8
0
 10
-69.966
 11
-70.372
 20
-203.987
 21
-203.71
  0
LINE
  8
0
 10
-70.372
 11
-70.679
 20
-203.71
 21
-203.325
  0
LINE
  8
0
 10
-70.679
 11
-70.859
 20
-203.325
 21
-202.867
  0
LINE
  8
0
 10
-70.859
 11
-70.895
 20
-202.867
 21
-202.377
  0
LINE
  8
0
 10
-70.895
 11
-70.786
 20
202.623
 21
203.103
  0
LINE
  8
0
 10
-70.786
 11
-70.54
 20
203.103
 21
203.529
  0
LINE
  8
0
 10
-70.54
 11
-70.179
 20
203.529
 21
203.863
  0
LINE
  8
0
 10
-70.179
 11
-69.736
 20
203.863
 21
204.077
  0
LINE
  8
0
 10
-69.736
 11
-69.25
 20
204.077
 21
204.15
  0
LINE
  8
0
 10
-69.25
 11
-68.764
 20
204.15
 21
204.077
  0
LINE
  8
0
 10
-68.764
 11
-68.321
 20
204.077
 21
203.863
  0
LINE
  8
0
 10
-68.321
 11
-67.96
 20
203.863
 21
203.529
  0
LINE
  8
0
 10
-67.96
 11
-67.714
 20
203.529
 21
203.103
  0
LINE
  8
0
 10
-67.714
 11
-67.605
 20
203.103
 21
202.623
  0
LINE
  8
0
 10
-67.605
 11
-67.641
 20
202.623
 21
202.133
  0
LINE
  8
0
 10
-67.641
 11
-67.821
 20
202.133
 21
201.675
  0
LINE
  8
0
 10
-67.821
 11
-68.128
 20
201.675
 21
201.29
  0
LINE
  8
0
 10
-68.128
 11
-68.534
 20
201.29
 21
201.013
  0
LINE
  8
0
 10
-68.534
 11
-69.004
 20
201.013
 21
200.868
  0
LINE
  8
0
 10
-69.004
 11
-69.496
 20
200.868
 21
200.868
  0
LINE
  8
0
 10
-69.496
 11
-69.966
 20
200.868
 21
201.013
  0
LINE
  8
0
 10
-69.966
 11
-70.372
 20
201.013
 21
201.29
  0
LINE
  8
0
 10
-70.372
 11
-70.679
 20
201.29
 21
201.675
  0
LINE
  8
0
 10
-70.679
 11
-70.859
 20
201.675
 21
202.133
  0
LINE
  8
0
 10
-70.859
 11
-70.895
 20
202.133
 21
202.623
  0
LINE
  8
0
 10
-39.892
 11
-39.892
 20
188.254
 21
188.746
  0
LINE
  8
0
 10
-39.892
 11
-39.747
 20
188.746
 21
189.216
  0
LINE
  8
0
 10
-39.747
 11
-39.47
 20
189.216
 21
189.622
  0
LINE
  8
0
 10
-39.47
 11
-39.085
 20
189.622
 21
189.929
  0
LINE
  8
0
 10
-39.085
 11
-38.627
 20
189.929
 21
190.109
  0
LINE
  8
0
 10
-38.627
 11
-38.137
 20
190.109
 21
190.145
  0
LINE
  8
0
 10
-38.137
 11
-37.657
 20
190.145
 21
190.036
  0
LINE
  8
0
 10
-37.657
 11
-37.231
 20
190.036
 21
189.79
  0
LINE
  8
0
 10
-37.231
 11
-36.897
 20
189.79
 21
189.429
  0
LINE
  8
0
 10
-36.897
 11
-36.683
 20
189.429
 21
188.986
  0
LINE
  8
0
 10
-36.683
 11
-36.61
 20
188.986
 21
188.5
  0
LINE
  8
0
 10
-36.61
 11
-36.683
 20
188.5
 21
188.014
  0
LINE
  8
0
 10
-36.683
 11
-36.897
 20
188.014
 21
187.571
  0
LINE
  8
0
 10
-36.897
 11
-37.231
 20
187.571
 21
187.21
  0
LINE
  8
0
 10
-37.231
 11
-37.657
 20
187.21
 21
186.964
  0
LINE
  8
0
 10
-37.657
 11
-38.137
 20
186.964
 21
186.855
  0
LINE
  8
0
 10
-38.137
 11
-38.627
 20
186.855
 21
186.891
  0
LINE
  8
0
 10
-38.627
 11
-39.085
 20
186.891
 21
187.071
  0
LINE
  8
0
 10
-39.085
 11
-39.47
 20
187.071
 21
187.378
  0
LINE
  8
0
 10
-39.47
 11
-39.747
 20
187.378
 21
187.784
  0
LINE
  8
0
 10
-39.747
 11
-39.892
 20
187.784
 21
188.254
  0
LINE
  8
0
 10
-29.592
 11
-29.592
 20
96.554
 21
97.046
  0
LINE
  8
0
 10
-29.592
 11
-29.447
 20
97.046
 21
97.516
  0
LINE
  8
0
 10
-29.447
 11
-29.17
 20
97.516
 21
97.922
  0
LINE
  8
0
 10
-29.17
 11
-28.785
 20
97.922
 21
98.229
  0
LINE
  8
0
 10
-28.785
 11
-28.327
 20
98.229
 21
98.409
  0
LINE
  8
0
 10
-28.327
 11
-27.837
 20
98.409
 21
98.445
  0
LINE
  8
0
 10
-27.837
 11
-27.357
 20
98.445
 21
98.336
  0
LINE
  8
0
 10
-27.357
 11
-26.931
 20
98.336
 21
98.09
  0
LINE
  8
0
 10
-26.931
 11
-26.597
 20
98.09
 21
97.729
  0
LINE
  8
0
 10
-26.597
 11
-26.383
 20
97.729
 21
97.286
  0
LINE
  8
0
 10
-26.383
 11
-26.31
 20
97.286
 21
96.8
  0
LINE
  8
0
 10
-26.31
 11
-26.383
 20
96.8
 21
96.314
  0
LINE
  8
0
 10
-26.383
 11
-26.597
 20
96.314
 21
95.871
  0
LINE
  8
0
 10
-26.597
 11
-26.931
 20
95.871
 21
95.51
  0
LINE
  8
0
 10
-26.931
 11
-27.357
 20
95.51
 21
95.264
  0
LINE
  8
0
 10
-27.357
 11
-27.837
 20
95.264
 21
95.155
  0
LINE
  8
0
 10
-27.837
 11
-28.327
 20
95.155
 21
95.191
  0
LINE
  8
0
 10
-28.327
 11
-28.785
 20
95.191
 21
95.371
  0
LINE
  8
0
 10
-28.785
 11
-29.17
 20
95.371
 21
95.678
  0
LINE
  8
0
 10
-29.17
 11
-29.447
 20
95.678
 21
96.084
  0
LINE
  8
0
 10
-29.447
 11
-29.592
 20
96.084
 21
96.554
  0
LINE
  8
0
 10
-21.405
 11
-21.369
 20
-203.623
 21
-203.133
  0
LINE
  8
0
 10
-21.369
 11
-21.189
 20
-203.133
 21
-202.675
  0
LINE
  8
0
 10
-21.189
 11
-20.882
 20
-202.675
 21
-202.29
  0
LINE
  8
0
 10
-20.882
 11
-20.476
 20
-202.29
 21
-202.013
  0
LINE
  8
0
 10
-20.476
 11
-20.006
 20
-202.013
 21
-201.868
  0
LINE
  8
0
 10
-20.006
 11
-19.514
 20
-201.868
 21
-201.868
  0
LINE
  8
0
 10
-19.514
 11
-19.044
 20
-201.868
 21
-202.013
  0
LINE
  8
0
 10
-19.044
 11
-18.638
 20
-202.013
 21
-202.29
  0
LINE
  8
0
 10
-18.638
 11
-18.331
 20
-202.29
 21
-202.675
  0
LINE
  8
0
 10
-18.331
 11
-18.151
 20
-202.675
 21
-203.133
  0
LINE
  8
0
 10
-18.151
 11
-18.115
 20
-203.133
 21
-203.623
  0
LINE
  8
0
 10
-18.115
 11
-18.224
 20
-203.623
 21
-204.103
  0
LINE
  8
0
 10
-18.224
 11
-18.47
 20
-204.103
 21
-204.529
  0
LINE
  8
0
 10
-18.47
 11
-18.831
 20
-204.529
 21
-204.863
  0
LINE
  8
0
 10
-18.831
 11
-19.274
 20
-204.863
 21
-205.077
  0
LINE
  8
0
 10
-19.274
 11
-19.76
 20
-205.077
 21
-205.15
  0
LINE
  8
0
 10
-19.76
 11
-20.246
 20
-205.15
 21
-205.077
  0
LINE
  8
0
 10
-20.246
 11
-20.689
 20
-205.077
 21
-204.863
  0
LINE
  8
0
 10
-20.689
 11
-21.05
 20
-204.863
 21
-204.529
  0
LINE
  8
0
 10
-21.05
 11
-21.296
 20
-204.529
 21
-204.103
  0
LINE
  8
0
 10
-21.296
 11
-21.405
 20
-204.103
 21
-203.623
  0
LINE
  8
0
 10
-21.405
 11
-21.369
 20
-140.623
 21
-140.133
  0
LINE
  8
0
 10
-21.369
 11
-21.189
 20
-140.133
 21
-139.675
  0
LINE
  8
0
 10
-21.189
 11
-20.882
 20
-139.675
 21
-139.29
  0
LINE
  8
0
 10
-20.882
 11
-20.476
 20
-139.29
 21
-139.013
  0
LINE
  8
0
 10
-20.476
 11
-20.006
 20
-139.013
 21
-138.868
  0
LINE
  8
0
 10
-20.006
 11
-19.514
 20
-138.868
 21
-138.868
  0
LINE
  8
0
 10
-19.514
 11
-19.044
 20
-138.868
 21
-139.013
  0
LINE
  8
0
 10
-19.044
 11
-18.638
 20
-139.013
 21
-139.29
  0
LINE
  8
0
 10
-18.638
 11
-18.331
 20
-139.29
 21
-139.675
  0
LINE
  8
0
 10
-18.331
 11
-18.151
 20
-139.675
 21
-140.133
  0
LINE
  8
0
 10
-18.151
 11
-18.115
 20
-140.133
 21
-140.623
  0
LINE
  8
0
 10
-18.115
 11
-18.224
 20
-140.623
 21
-141.103
  0
LINE
  8
0
 10
-18.224
 11
-18.47
 20
-141.103
 21
-141.529
  0
LINE
  8
0
 10
-18.47
 11
-18.831
 20
-141.529
 21
-141.863
  0
LINE
  8
0
 10
-18.831
 11
-19.274
 20
-141.863
 21
-142.077
  0
LINE
  8
0
 10
-19.274
 11
-19.76
 20
-142.077
 21
-142.15
  0
LINE
  8
0
 10
-19.76
 11
-20.246
 20
-142.15
 21
-142.077
  0
LINE
  8
0
 10
-20.246
 11
-20.689
 20
-142.077
 21
-141.863
  0
LINE
  8
0
 10
-20.689
 11
-21.05
 20
-141.863
 21
-141.529
  0
LINE
  8
0
 10
-21.05
 11
-21.296
 20
-141.529
 21
-141.103
  0
LINE
  8
0
 10
-21.296
 11
-21.405
 20
-141.103
 21
-140.623
  0
LINE
  8
0
 10
8.595
 11
8.631
 20
-203.623
 21
-203.133
  0
LINE
  8
0
 10
8.631
 11
8.811
 20
-203.133
 21
-202.675
  0
LINE
  8
0
 10
8.811
 11
9.118
 20
-202.675
 21
-202.29
  0
LINE
  8
0
 10
9.118
 11
9.524
 20
-202.29
 21
-202.013
  0
LINE
  8
0
 10
9.524
 11
9.994
 20
-202.013
 21
-201.868
  0
LINE
  8
0
 10
9.994
 11
10.486
 20
-201.868
 21
-201.868
  0
LINE
  8
0
 10
10.486
 11
10.956
 20
-201.868
 21
-202.013
  0
LINE
  8
0
 10
10.956
 11
11.362
 20
-202.013
 21
-202.29
  0
LINE
  8
0
 10
11.362
 11
11.669
 20
-202.29
 21
-202.675
  0
LINE
  8
0
 10
11.669
 11
11.849
 20
-202.675
 21
-203.133
  0
LINE
  8
0
 10
11.849
 11
11.885
 20
-203.133
 21
-203.623
  0
LINE
  8
0
 10
11.885
 11
11.776
 20
-203.623
 21
-204.103
  0
LINE
  8
0
 10
11.776
 11
11.53
 20
-204.103
 21
-204.529
  0
LINE
  8
0
 10
11.53
 11
11.169
 20
-204.529
 21
-204.863
  0
LINE
  8
0
 10
11.169
 11
10.726
 20
-204.863
 21
-205.077
  0
LINE
  8
0
 10
10.726
 11
10.24
 20
-205.077
 21
-205.15
  0
LINE
  8
0
 10
10.24
 11
9.754
 20
-205.15
 21
-205.077
  0
LINE
  8
0
 10
9.754
 11
9.311
 20
-205.077
 21
-204.863
  0
LINE
  8
0
 10
9.311
 11
8.95
 20
-204.863
 21
-204.529
  0
LINE
  8
0
 10
8.95
 11
8.704
 20
-204.529
 21
-204.103
  0
LINE
  8
0
 10
8.704
 11
8.595
 20
-204.103
 21
-203.623
  0
LINE
  8
0
 10
8.595
 11
8.631
 20
-140.623
 21
-140.133
  0
LINE
  8
0
 10
8.631
 11
8.811
 20
-140.133
 21
-139.675
  0
LINE
  8
0
 10
8.811
 11
9.118
 20
-139.675
 21
-139.29
  0
LINE
  8
0
 10
9.118
 11
9.524
 20
-139.29
 21
-139.013
  0
LINE
  8
0
 10
9.524
 11
9.994
 20
-139.013
 21
-138.868
  0
LINE
  8
0
 10
9.994
 11
10.486
 20
-138.868
 21
-138.868
  0
LINE
  8
0
 10
10.486
 11
10.956
 20
-138.868
 21
-139.013
  0
LINE
  8
0
 10
10.956
 11
11.362
 20
-139.013
 21
-139.29
  0
LINE
  8
0
 10
11.362
 11
11.669
 20
-139.29
 21
-139.675
  0
LINE
  8
0
 10
11.669
 11
11.849
 20
-139.675
 21
-140.133
  0
LINE
  8
0
 10
11.849
 11
11.885
 20
-140.133
 21
-140.623
  0
LINE
  8
0
 10
11.885
 11
11.776
 20
-140.623
 21
-141.103
  0
LINE
  8
0
 10
11.776
 11
11.53
 20
-141.103
 21
-141.529
  0
LINE
  8
0
 10
11.53
 11
11.169
 20
-141.529
 21
-141.863
  0
LINE
  8
0
 10
11.169
 11
10.726
 20
-141.863
 21
-142.077
  0
LINE
  8
0
 10
10.726
 11
10.24
 20
-142.077
 21
-142.15
  0
LINE
  8
0
 10
10.24
 11
9.754
 20
-142.15
 21
-142.077
  0
LINE
  8
0
 10
9.754
 11
9.311
 20
-142.077
 21
-141.863
  0
LINE
  8
0
 10
9.311
 11
8.95
 20
-141.863
 21
-141.529
  0
LINE
  8
0
 10
8.95
 11
8.704
 20
-141.529
 21
-141.103
  0
LINE
  8
0
 10
8.704
 11
8.595
 20
-141.103
 21
-140.623
  0
LINE
  8
0
 10
12.828
 11
12.828
 20
96.554
 21
97.046
  0
LINE
  8
0
 10
12.828
 11
12.973
 20
97.046
 21
97.516
  0
LINE
  8
0
 10
12.973
 11
13.25
 20
97.516
 21
97.922
  0
LINE
  8
0
 10
13.25
 11
13.635
 20
97.922
 21
98.229
  0
LINE
  8
0
 10
13.635
 11
14.093
 20
98.229
 21
98.409
  0
LINE
  8
0
 10
14.093
 11
14.583
 20
98.409
 21
98.445
  0
LINE
  8
0
 10
14.583
 11
15.063
 20
98.445
 21
98.336
  0
LINE
  8
0
 10
15.063
 11
15.489
 20
98.336
 21
98.09
  0
LINE
  8
0
 10
15.489
 11
15.823
 20
98.09
 21
97.729
  0
LINE
  8
0
 10
15.823
 11
16.037
 20
97.729
 21
97.286
  0
LINE
  8
0
 10
16.037
 11
16.11
 20
97.286
 21
96.8
  0
LINE
  8
0
 10
16.11
 11
16.037
 20
96.8
 21
96.314
  0
LINE
  8
0
 10
16.037
 11
15.823
 20
96.314
 21
95.871
  0
LINE
  8
0
 10
15.823
 11
15.489
 20
95.871
 21
95.51
  0
LINE
  8
0
 10
15.489
 11
15.063
 20
95.51
 21
95.264
  0
LINE
  8
0
 10
15.063
 11
14.583
 20
95.264
 21
95.155
  0
LINE
  8
0
 10
14.583
 11
14.093
 20
95.155
 21
95.191
  0
LINE
  8
0
 10
14.093
 11
13.635
 20
95.191
 21
95.371
  0
LINE
  8
0
 10
13.635
 11
13.25
 20
95.371
 21
95.678
  0
LINE
  8
0
 10
13.25
 11
12.973
 20
95.678
 21
96.084
  0
LINE
  8
0
 10
12.973
 11
12.828
 20
96.084
 21
96.554
  0
LINE
  8
0
 10
18.355
 11
18.391
 20
142.377
 21
142.867
  0
LINE
  8
0
 10
18.391
 11
18.571
 20
142.867
 21
143.325
  0
LINE
  8
0
 10
18.571
 11
18.878
 20
143.325
 21
143.71
  0
LINE
  8
0
 10
18.878
 11
19.284
 20
143.71
 21
143.987
  0
LINE
  8
0
 10
19.284
 11
19.754
 20
143.987
 21
144.132
  0
LINE
  8
0
 10
19.754
 11
20.246
 20
144.132
 21
144.132
  0
LINE
  8
0
 10
20.246
 11
20.716
 20
144.132
 21
143.987
  0
LINE
  8
0
 10
20.716
 11
21.122
 20
143.987
 21
143.71
  0
LINE
  8
0
 10
21.122
 11
21.429
 20
143.71
 21
143.325
  0
LINE
  8
0
 10
21.429
 11
21.609
 20
143.325
 21
142.867
  0
LINE
  8
0
 10
21.609
 11
21.645
 20
142.867
 21
142.377
  0
LINE
  8
0
 10
21.645
 11
21.536
 20
142.377
 21
141.897
  0
LINE
  8
0
 10
21.536
 11
21.29
 20
141.897
 21
141.471
  0
LINE
  8
0
 10
21.29
 11
20.929
 20
141.471
 21
141.137
  0
LINE
  8
0
 10
20.929
 11
20.486
 20
141.137
 21
140.923
  0
LINE
  8
0
 10
20.486
 11
20
 20
140.923
 21
140.85
  0
LINE
  8
0
 10
20
 11
19.514
 20
140.85
 21
140.923
  0
LINE
  8
0
 10
19.514
 11
19.071
 20
140.923
 21
141.137
  0
LINE
  8
0
 10
19.071
 11
18.71
 20
141.137
 21
141.471
  0
LINE
  8
0
 10
18.71
 11
18.464
 20
141.471
 21
141.897
  0
LINE
  8
0
 10
18.464
 11
18.355
 20
141.897
 21
142.377
  0
LINE
  8
0
 10
54.105
 11
54.141
 20
-136.623
 21
-136.133
  0
LINE
  8
0
 10
54.141
 11
54.321
 20
-136.133
 21
-135.675
  0
LINE
  8
0
 10
54.321
 11
54.628
 20
-135.675
 21
-135.29
  0
LINE
  8
0
 10
54.628
 11
55.034
 20
-135.29
 21
-135.013
  0
LINE
  8
0
 10
55.034
 11
55.504
 20
-135.013
 21
-134.868
  0
LINE
  8
0
 10
55.504
 11
55.996
 20
-134.868
 21
-134.868
  0
LINE
  8
0
 10
55.996
 11
56.466
 20
-134.868
 21
-135.013
  0
LINE
  8
0
 10
56.466
 11
56.872
 20
-135.013
 21
-135.29
  0
LINE
  8
0
 10
56.872
 11
57.179
 20
-135.29
 21
-135.675
  0
LINE
  8
0
 10
57.179
 11
57.359
 20
-135.675
 21
-136.133
  0
LINE
  8
0
 10
57.359
 11
57.395
 20
-136.133
 21
-136.623
  0
LINE
  8
0
 10
57.395
 11
57.286
 20
-136.623
 21
-137.103
  0
LINE
  8
0
 10
57.286
 11
57.04
 20
-137.103
 21
-137.529
  0
LINE
  8
0
 10
57.04
 11
56.679
 20
-137.529
 21
-137.863
  0
LINE
  8
0
 10
56.679
 11
56.236
 20
-137.863
 21
-138.077
  0
LINE
  8
0
 10
56.236
 11
55.75
 20
-138.077
 21
-138.15
  0
LINE
  8
0
 10
55.75
 11
55.264
 20
-138.15
 21
-138.077
  0
LINE
  8
0
 10
55.264
 11
54.821
 20
-138.077
 21
-137.863
  0
LINE
  8
0
 10
54.821
 11
54.46
 20
-137.863
 21
-137.529
  0
LINE
  8
0
 10
54.46
 11
54.214
 20
-137.529
 21
-137.103
  0
LINE
  8
0
 10
54.214
 11
54.105
 20
-137.103
 21
-136.623
  0
LINE
  8
0
 10
54.105
 11
54.141
 20
126.377
 21
126.867
  0
LINE
  8
0
 10
54.141
 11
54.321
 20
126.867
 21
127.325
  0
LINE
  8
0
 10
54.321
 11
54.628
 20
127.325
 21
127.71
  0
LINE
  8
0
 10
54.628
 11
55.034
 20
127.71
 21
127.987
  0
LINE
  8
0
 10
55.034
 11
55.504
 20
127.987
 21
128.132
  0
LINE
  8
0
 10
55.504
 11
55.996
 20
128.132
 21
128.132
  0
LINE
  8
0
 10
55.996
 11
56.466
 20
128.132
 21
127.987
  0
LINE
  8
0
 10
56.466
 11
56.872
 20
127.987
 21
127.71
  0
LINE
  8
0
 10
56.872
 11
57.179
 20
127.71
 21
127.325
  0
LINE
  8
0
 10
57.179
 11
57.359
 20
127.325
 21
126.867
  0
LINE
  8
0
 10
57.359
 11
57.395
 20
126.867
 21
126.377
  0
LINE
  8
0
 10
57.395
 11
57.286
 20
126.377
 21
125.897
  0
LINE
  8
0
 10
57.286
 11
57.04
 20
125.897
 21
125.471
  0
LINE
  8
0
 10
57.04
 11
56.679
 20
125.471
 21
125.137
  0
LINE
  8
0
 10
56.679
 11
56.236
 20
125.137
 21
124.923
  0
LINE
  8
0
 10
56.236
 11
55.75
 20
124.923
 21
124.85
  0
LINE
  8
0
 10
55.75
 11
55.264
 20
124.85
 21
124.923
  0
LINE
  8
0
 10
55.264
 11
54.821
 20
124.923
 21
125.137
  0
LINE
  8
0
 10
54.821
 11
54.46
 20
125.137
 21
125.471
  0
LINE
  8
0
 10
54.46
 11
54.214
 20
125.471
 21
125.897
  0
LINE
  8
0
 10
54.214
 11
54.105
 20
125.897
 21
126.377
  0
LINE
  8
0
 10
89.105
 11
89.141
 20
-136.623
 21
-136.133
  0
LINE
  8
0
 10
89.141
 11
89.321
 20
-136.133
 21
-135.675
  0
LINE
  8
0
 10
89.321
 11
89.628
 20
-135.675
 21
-135.29
  0
LINE
  8
0
 10
89.628
 11
90.034
 20
-135.29
 21
-135.013
  0
LINE
  8
0
 10
90.034
 11
90.504
 20
-135.013
 21
-134.868
  0
LINE
  8
0
 10
90.504
 11
90.996
 20
-134.868
 21
-134.868
  0
LINE
  8
0
 10
90.996
 11
91.466
 20
-134.868
 21
-135.013
  0
LINE
  8
0
 10
91.466
 11
91.872
 20
-135.013
 21
-135.29
  0
LINE
  8
0
 10
91.872
 11
92.179
 20
-135.29
 21
-135.675
  0
LINE
  8
0
 10
92.179
 11
92.359
 20
-135.675
 21
-136.133
  0
LINE
  8
0
 10
92.359
 11
92.395
 20
-136.133
 21
-136.623
  0
LINE
  8
0
 10
92.395
 11
92.286
 20
-136.623
 21
-137.103
  0
LINE
  8
0
 10
92.286
 11
92.04
 20
-137.103
 21
-137.529
  0
LINE
  8
0
 10
92.04
 11
91.679
 20
-137.529
 21
-137.863
  0
LINE
  8
0
 10
91.679
 11
91.236
 20
-137.863
 21
-138.077
  0
LINE
  8
0
 10
91.236
 11
90.75
 20
-138.077
 21
-138.15
  0
LINE
  8
0
 10
90.75
 11
90.264
 20
-138.15
 21
-138.077
  0
LINE
  8
0
 10
90.264
 11
89.821
 20
-138.077
 21
-137.863
  0
LINE
  8
0
 10
89.821
 11
89.46
 20
-137.863
 21
-137.529
  0
LINE
  8
0
 10
89.46
 11
89.214
 20
-137.529
 21
-137.103
  0
LINE
  8
0
 10
89.214
 11
89.105
 20
-137.103
 21
-136.623
  0
LINE
  8
0
 10
89.105
 11
89.141
 20
126.377
 21
126.867
  0
LINE
  8
0
 10
89.141
 11
89.321
 20
126.867
 21
127.325
  0
LINE
  8
0
 10
89.321
 11
89.628
 20
127.325
 21
127.71
  0
LINE
  8
0
 10
89.628
 11
90.034
 20
127.71
 21
127.987
  0
LINE
  8
0
 10
90.034
 11
90.504
 20
127.987
 21
128.132
  0
LINE
  8
0
 10
90.504
 11
90.996
 20
128.132
 21
128.132
  0
LINE
  8
0
 10
90.996
 11
91.466
 20
128.132
 21
127.987
  0
LINE
  8
0
 10
91.466
 11
91.872
 20
127.987
 21
127.71
  0
LINE
  8
0
 10
91.872
 11
92.179
 20
127.71
 21
127.325
  0
LINE
  8
0
 10
92.179
 11
92.359
 20
127.325
 21
126.867
  0
LINE
  8
0
 10
92.359
 11
92.395
 20
126.867
 21
126.377
  0
LINE
  8
0
 10
92.395
 11
92.286
 20
126.377
 21
125.897
  0
LINE
  8
0
 10
92.286
 11
92.04
 20
125.897
 21
125.471
  0
LINE
  8
0
 10
92.04
 11
91.679
 20
125.471
 21
125.137
  0
LINE
  8
0
 10
91.679
 11
91.236
 20
125.137
 21
124.923
  0
LINE
  8
0
 10
91.236
 11
90.75
 20
124.923
 21
124.85
  0
LINE
  8
0
 10
90.75
 11
90.264
 20
124.85
 21
124.923
  0
LINE
  8
0
 10
90.264
 11
89.821
 20
124.923
 21
125.137
  0
LINE
  8
0
 10
89.821
 11
89.46
 20
125.137
 21
125.471
  0
LINE
  8
0
 10
89.46
 11
89.214
 20
125.471
 21
125.897
  0
LINE
  8
0
 10
89.214
 11
89.105
 20
125.897
 21
126.377
  0
LINE
  8
0
 10
107.618
 11
107.618
 20
-118.246
 21
-117.754
  0
LINE
  8
0
 10
107.618
 11
107.763
 20
-117.754
 21
-117.284
  0
LINE
  8
0
 10
107.763
 11
108.04
 20
-117.284
 21
-116.878
  0
LINE
  8
0
 10
108.04
 11
108.425
 20
-116.878
 21
-116.571
  0
LINE
  8
0
 10
108.425
 11
108.883
 20
-116.571
 21
-116.391
  0
LINE
  8
0
 10
108.883
 11
109.373
 20
-116.391
 21
-116.355
  0
LINE
  8
0
 10
109.373
 11
109.853
 20
-116.355
 21
-116.464
  0
LINE
  8
0
 10
109.853
 11
110.279
 20
-116.464
 21
-116.71
  0
LINE
  8
0
 10
110.279
 11
110.613
 20
-116.71
 21
-117.071
  0
LINE
  8
0
 10
110.613
 11
110.827
 20
-117.071
 21
-117.514
  0
LINE
  8
0
 10
110.827
 11
110.9
 20
-117.514
 21
-118
  0
LINE
  8
0
 10
110.9
 11
110.827
 20
-118
 21
-118.486
  0
LINE
  8
0
 10
110.827
 11
110.613
 20
-118.486
 21
-118.929
  0
LINE
  8
0
 10
110.613
 11
110.279
 20
-118.929
 21
-119.29
  0
LINE
  8
0
 10
110.279
 11
109.853
 20
-119.29
 21
-119.536
  0
LINE
  8
0
 10
109.853
 11
109.373
 20
-119.536
 21
-119.645
  0
LINE
  8
0
 10
109.373
 11
108.883
 20
-119.645
 21
-119.609
  0
LINE
  8
0
 10
108.883
 11
108.425
 20
-119.609
 21
-119.429
  0
LINE
  8
0
 10
108.425
 11
108.04
 20
-119.429
 21
-119.122
  0
LINE
  8
0
 10
108.04
 11
107.763
 20
-119.122
 21
-118.716
  0
LINE
  8
0
 10
107.763
 11
107.618
 20
-118.716
 21
-118.246
  0
LINE
  8
0
 10
107.618
 11
107.618
 20
67.654
 21
68.146
  0
LINE
  8
0
 10
107.618
 11
107.763
 20
68.146
 21
68.616
  0
LINE
  8
0
 10
107.763
 11
108.04
 20
68.616
 21
69.022
  0
LINE
  8
0
 10
108.04
 11
108.425
 20
69.022
 21
69.329
  0
LINE
  8
0
 10
108.425
 11
108.883
 20
69.329
 21
69.509
  0
LINE
  8
0
 10
108.883
 11
109.373
 20
69.509
 21
69.545
  0
LINE
  8
0
 10
109.373
 11
109.853
 20
69.545
 21
69.436
  0
LINE
  8
0
 10
109.853
 11
110.279
 20
69.436
 21
69.19
  0
LINE
  8
0
 10
110.279
 11
110.613
 20
69.19
 21
68.829
  0
LINE
  8
0
 10
110.613
 11
110.827
 20
68.829
 21
68.386
  0
LINE
  8
0
 10
110.827
 11
110.9
 20
68.386
 21
67.9
  0
LINE
  8
0
 10
110.9
 11
110.827
 20
67.9
 21
67.414
  0
LINE
  8
0
 10
110.827
 11
110.613
 20
67.414
 21
66.971
  0
LINE
  8
0
 10
110.613
 11
110.279
 20
66.971
 21
66.61
  0
LINE
  8
0
 10
110.279
 11
109.853
 20
66.61
 21
66.364
  0
LINE
  8
0
 10
109.853
 11
109.373
 20
66.364
 21
66.255
  0
LINE
  8
0
 10
109.373
 11
108.883
 20
66.255
 21
66.291
  0
LINE
  8
0
 10
108.883
 11
108.425
 20
66.291
 21
66.471
  0
LINE
  8
0
 10
108.425
 11
108.04
 20
66.471
 21
66.778
  0
LINE
  8
0
 10
108.04
 11
107.763
 20
66.778
 21
67.184
  0
LINE
  8
0
 10
107.763
 11
107.618
 20
67.184
 21
67.654
  0
LINE
  8
0
 10
116.905
 11
117.014
 20
190.813
 21
191.293
  0
LINE
  8
0
 10
117.014
 11
117.26
 20
191.293
 21
191.719
  0
LINE
  8
0
 10
117.26
 11
117.621
 20
191.719
 21
192.053
  0
LINE
  8
0
 10
117.621
 11
118.064
 20
192.053
 21
192.267
  0
LINE
  8
0
 10
118.064
 11
118.55
 20
192.267
 21
192.34
  0
LINE
  8
0
 10
118.55
 11
119.036
 20
192.34
 21
192.267
  0
LINE
  8
0
 10
119.036
 11
119.479
 20
192.267
 21
192.053
  0
LINE
  8
0
 10
119.479
 11
119.84
 20
192.053
 21
191.719
  0
LINE
  8
0
 10
119.84
 11
120.086
 20
191.719
 21
191.293
  0
LINE
  8
0
 10
120.086
 11
120.195
 20
191.293
 21
190.813
  0
LINE
  8
0
 10
120.195
 11
120.159
 20
190.813
 21
190.323
  0
LINE
  8
0
 10
120.159
 11
119.979
 20
190.323
 21
189.865
  0
LINE
  8
0
 10
119.979
 11
119.672
 20
189.865
 21
189.48
  0
LINE
  8
0
 10
119.672
 11
119.266
 20
189.48
 21
189.203
  0
LINE
  8
0
 10
119.266
 11
118.796
 20
189.203
 21
189.058
  0
LINE
  8
0
 10
118.796
 11
118.304
 20
189.058
 21
189.058
  0
LINE
  8
0
 10
118.304
 11
117.834
 20
189.058
 21
189.203
  0
LINE
  8
0
 10
117.834
 11
117.428
 20
189.203
 21
189.48
  0
LINE
  8
0
 10
117.428
 11
117.121
 20
189.48
 21
189.865
  0
LINE
  8
0
 10
117.121
 11
116.941
 20
189.865
 21
190.323
  0
LINE
  8
0
 10
116.941
 11
116.905
 20
190.323
 21
190.813
  0
LINE
  8
0
 10
156.258
 11
156.258
 20
-0.246
 21
0.246
  0
LINE
  8
0
 10
156.258
 11
156.318
 20
0.246
 21
0.735
  0
LINE
  8
0
 10
156.318
 11
156.438
 20
0.735
 21
1.213
  0
LINE
  8
0
 10
156.438
 11
156.616
 20
1.213
 21
1.672
  0
LINE
  8
0
 10
156.616
 11
156.849
 20
1.672
 21
2.106
  0
LINE
  8
0
 10
156.849
 11
157.134
 20
2.106
 21
2.508
  0
LINE
  8
0
 10
157.134
 11
157.465
 20
2.508
 21
2.872
  0
LINE
  8
0
 10
157.465
 11
157.839
 20
2.872
 21
3.192
  0
LINE
  8
0
 10
157.839
 11
158.25
 20
3.192
 21
3.464
  0
LINE
  8
0
 10
158.25
 11
158.691
 20
3.464
 21
3.684
  0
LINE
  8
0
 10
158.691
 11
159.155
 20
3.684
 21
3.847
  0
LINE
  8
0
 10
159.155
 11
159.636
 20
3.847
 21
3.953
  0
LINE
  8
0
 10
159.636
 11
160.127
 20
3.953
 21
3.998
  0
LINE
  8
0
 10
160.127
 11
160.619
 20
3.998
 21
3.983
  0
LINE
  8
0
 10
160.619
 11
161.106
 20
3.983
 21
3.907
  0
LINE
  8
0
 10
161.106
 11
161.579
 20
3.907
 21
3.773
  0
LINE
  8
0
 10
161.579
 11
162.033
 20
3.773
 21
3.581
  0
LINE
  8
0
 10
162.033
 11
162.459
 20
3.581
 21
3.334
  0
LINE
  8
0
 10
162.459
 11
162.852
 20
3.334
 21
3.038
  0
LINE
  8
0
 10
162.852
 11
163.206
 20
3.038
 21
2.695
  0
LINE
  8
0
 10
163.206
 11
163.515
 20
2.695
 21
2.311
  0
LINE
  8
0
 10
163.515
 11
163.774
 20
2.311
 21
1.892
  0
LINE
  8
0
 10
163.774
 11
163.98
 20
1.892
 21
1.445
  0
LINE
  8
0
 10
163.98
 11
164.129
 20
1.445
 21
0.976
  0
LINE
  8
0
 10
164.129
 11
164.22
 20
0.976
 21
0.492
  0
LINE
  8
0
 10
164.22
 11
164.25
 20
0.492
 21
0
  0
LINE
  8
0
 10
164.25
 11
164.22
 20
0
 21
-0.492
  0
LINE
  8
0
 10
164.22
 11
164.129
 20
-0.492
 21
-0.976
  0
LINE
  8
0
 10
164.129
 11
163.98
 20
-0.976
 21
-1.445
  0
LINE
  8
0
 10
163.98
 11
163.774
 20
-1.445
 21
-1.892
  0
LINE
  8
0
 10
163.774
 11
163.515
 20
-1.892
 21
-2.311
  0
LINE
  8
0
 10
163.515
 11
163.206
 20
-2.311
 21
-2.695
  0
LINE
  8
0
 10
163.206
 11
162.852
 20
-2.695
 21
-3.038
  0
LINE
  8
0
 10
162.852
 11
162.459
 20
-3.038
 21
-3.334
  0
LINE
  8
0
 10
162.459
 11
162.033
 20
-3.334
 21
-3.581
  0
LINE
  8
0
 10
162.033
 11
161.579
 20
-3.581
 21
-3.773
  0
LINE
  8
0
 10
161.579
 11
161.106
 20
-3.773
 21
-3.907
  0
LINE
  8
0
 10
161.106
 11
160.619
 20
-3.907
 21
-3.983
  0
LINE
  8
0
 10
160.619
 11
160.127
 20
-3.983
 21
-3.998
  0
LINE
  8
0
 10
160.127
 11
159.636
 20
-3.998
 21
-3.953
  0
LINE
  8
0
 10
159.636
 11
159.155
 20
-3.953
 21
-3.847
  0
LINE
  8
0
 10
159.155
 11
158.691
 20
-3.847
 21
-3.684
  0
LINE
  8
0
 10
158.691
 11
158.25
 20
-3.684
 21
-3.464
  0
LINE
  8
0
 10
158.25
 11
157.839
 20
-3.464
 21
-3.192
  0
LINE
  8
0
 10
157.839
 11
157.465
 20
-3.192
 21
-2.872
  0
LINE
  8
0
 10
157.465
 11
157.134
 20
-2.872
 21
-2.508
  0
LINE
  8
0
 10
157.134
 11
156.849
 20
-2.508
 21
-2.106
  0
LINE
  8
0
 10
156.849
 11
156.616
 20
-2.106
 21
-1.672
  0
LINE
  8
0
 10
156.616
 11
156.438
 20
-1.672
 21
-1.213
  0
LINE
  8
0
 10
156.438
 11
156.318
 20
-1.213
 21
-0.735
  0
LINE
  8
0
 10
156.318
 11
156.258
 20
-0.735
 21
-0.246
  0
LINE
  8
0
 10
157.428
 11
157.428
 20
64.454
 21
64.946
  0
LINE
  8
0
 10
157.428
 11
157.573
 20
64.946
 21
65.416
  0
LINE
  8
0
 10
157.573
 11
157.85
 20
65.416
 21
65.822
  0
LINE
  8
0
 10
157.85
 11
158.235
 20
65.822
 21
66.129
  0
LINE
  8
0
 10
158.235
 11
158.693
 20
66.129
 21
66.309
  0
LINE
  8
0
 10
158.693
 11
159.183
 20
66.309
 21
66.345
  0
LINE
  8
0
 10
159.183
 11
159.663
 20
66.345
 21
66.236
  0
LINE
  8
0
 10
159.663
 11
160.089
 20
66.236
 21
65.99
  0
LINE
  8
0
 10
160.089
 11
160.423
 20
65.99
 21
65.629
  0
LINE
  8
0
 10
160.423
 11
160.637
 20
65.629
 21
65.186
  0
LINE
  8
0
 10
160.637
 11
160.71
 20
65.186
 21
64.7
  0
LINE
  8
0
 10
160.71
 11
160.637
 20
64.7
 21
64.214
  0
LINE
  8
0
 10
160.637
 11
160.423
 20
64.214
 21
63.771
  0
LINE
  8
0
 10
160.423
 11
160.089
 20
63.771
 21
63.41
  0
LINE
  8
0
 10
160.089
 11
159.663
 20
63.41
 21
63.164
  0
LINE
  8
0
 10
159.663
 11
159.183
 20
63.164
 21
63.055
  0
LINE
  8
0
 10
159.183
 11
158.693
 20
63.055
 21
63.091
  0
LINE
  8
0
 10
158.693
 11
158.235
 20
63.091
 21
63.271
  0
LINE
  8
0
 10
158.235
 11
157.85
 20
63.271
 21
63.578
  0
LINE
  8
0
 10
157.85
 11
157.573
 20
63.578
 21
63.984
  0
LINE
  8
0
 10
157.573
 11
157.428
 20
63.984
 21
64.454
  0
LINE
  8
0
 10
215.308
 11
215.308
 20
64.454
 21
64.946
  0
LINE
  8
0
 10
215.308
 11
215.453
 20
64.946
 21
65.416
  0
LINE
  8
0
 10
215.453
 11
215.73
 20
65.416
 21
65.822
  0
LINE
  8
0
 10
215.73
 11
216.115
 20
65.822
 21
66.129
  0
LINE
  8
0
 10
216.115
 11
216.573
 20
66.129
 21
66.309
  0
LINE
  8
0
 10
216.573
 11
217.063
 20
66.309
 21
66.345
  0
LINE
  8
0
 10
217.063
 11
217.543
 20
66.345
 21
66.236
  0
LINE
  8
0
 10
217.543
 11
217.969
 20
66.236
 21
65.99
  0
LINE
  8
0
 10
217.969
 11
218.303
 20
65.99
 21
65.629
  0
LINE
  8
0
 10
218.303
 11
218.517
 20
65.629
 21
65.186
  0
LINE
  8
0
 10
218.517
 11
218.59
 20
65.186
 21
64.7
  0
LINE
  8
0
 10
218.59
 11
218.517
 20
64.7
 21
64.214
  0
LINE
  8
0
 10
218.517
 11
218.303
 20
64.214
 21
63.771
  0
LINE
  8
0
 10
218.303
 11
217.969
 20
63.771
 21
63.41
  0
LINE
  8
0
 10
217.969
 11
217.543
 20
63.41
 21
63.164
  0
LINE
  8
0
 10
217.543
 11
217.063
 20
63.164
 21
63.055
  0
LINE
  8
0
 10
217.063
 11
216.573
 20
63.055
 21
63.091
  0
LINE
  8
0
 10
216.573
 11
216.115
 20
63.091
 21
63.271
  0
LINE
  8
0
 10
216.115
 11
215.73
 20
63.271
 21
63.578
  0
LINE
  8
0
 10
215.73
 11
215.453
 20
63.578
 21
63.984
  0
LINE
  8
0
 10
215.453
 11
215.308
 20
63.984
 21
64.454
  0
LINE
  8
0
 10
219.005
 11
219.041
 20
83.777
 21
84.267
  0
LINE
  8
0
 10
219.041
 11
219.221
 20
84.267
 21
84.725
  0
LINE
  8
0
 10
219.221
 11
219.528
 20
84.725
 21
85.11
  0
LINE
  8
0
 10
219.528
 11
219.934
 20
85.11
 21
85.387
  0
LINE
  8
0
 10
219.934
 11
220.404
 20
85.387
 21
85.532
  0
LINE
  8
0
 10
220.404
 11
220.896
 20
85.532
 21
85.532
  0
LINE
  8
0
 10
220.896
 11
221.366
 20
85.532
 21
85.387
  0
LINE
  8
0
 10
221.366
 11
221.772
 20
85.387
 21
85.11
  0
LINE
  8
0
 10
221.772
 11
222.079
 20
85.11
 21
84.725
  0
LINE
  8
0
 10
222.079
 11
222.259
 20
84.725
 21
84.267
  0
LINE
  8
0
 10
222.259
 11
222.295
 20
84.267
 21
83.777
  0
LINE
  8
0
 10
222.295
 11
222.186
 20
83.777
 21
83.297
  0
LINE
  8
0
 10
222.186
 11
221.94
 20
83.297
 21
82.871
  0
LINE
  8
0
 10
221.94
 11
221.579
 20
82.871
 21
82.537
  0
LINE
  8
0
 10
221.579
 11
221.136
 20
82.537
 21
82.323
  0
LINE
  8
0
 10
221.136
 11
220.65
 20
82.323
 21
82.25
  0
LINE
  8
0
 10
220.65
 11
220.164
 20
82.25
 21
82.323
  0
LINE
  8
0
 10
220.164
 11
219.721
 20
82.323
 21
82.537
  0
LINE
  8
0
 10
219.721
 11
219.36
 20
82.537
 21
82.871
  0
LINE
  8
0
 10
219.36
 11
219.114
 20
82.871
 21
83.297
  0
LINE
  8
0
 10
219.114
 11
219.005
 20
83.297
 21
83.777
  0
ENDSEC
  0
SECTION
  2
OBJECTS
  0
DICTIONARY
  0
ENDSEC
  0
EOF
