<?xml version="1.0"?>
<svg xmlns="http://www.w3.org/2000/svg" version="1.1" height="432mm" width="485mm" >
 <g style="fill-opacity:1.0; stroke:black; stroke-width:1;">
  <line x1="0.038000mm" y1="412.872000mm" x2="0.038000mm" y2="412.872000mm" />
  <line x1="0.038000mm" y1="412.872000mm" x2="0.000000mm" y2="412.000000mm" />
  <line x1="0.000000mm" y1="412.000000mm" x2="0.000000mm" y2="10.000000mm" />
  <line x1="0.000000mm" y1="10.000000mm" x2="0.038000mm" y2="9.128000mm" />
  <line x1="0.038000mm" y1="9.128000mm" x2="0.152000mm" y2="8.264000mm" />
  <line x1="0.152000mm" y1="8.264000mm" x2="0.341000mm" y2="7.412000mm" />
  <line x1="0.341000mm" y1="7.412000mm" x2="0.603000mm" y2="6.580000mm" />
  <line x1="0.603000mm" y1="6.580000mm" x2="0.937000mm" y2="5.774000mm" />
  <line x1="0.937000mm" y1="5.774000mm" x2="1.340000mm" y2="5.000000mm" />
  <line x1="1.340000mm" y1="5.000000mm" x2="1.808000mm" y2="4.264000mm" />
  <line x1="1.808000mm" y1="4.264000mm" x2="2.340000mm" y2="3.572000mm" />
  <line x1="2.340000mm" y1="3.572000mm" x2="2.929000mm" y2="2.929000mm" />
  <line x1="2.929000mm" y1="2.929000mm" x2="3.572000mm" y2="2.340000mm" />
  <line x1="3.572000mm" y1="2.340000mm" x2="4.264000mm" y2="1.808000mm" />
  <line x1="4.264000mm" y1="1.808000mm" x2="5.000000mm" y2="1.340000mm" />
  <line x1="5.000000mm" y1="1.340000mm" x2="5.774000mm" y2="0.937000mm" />
  <line x1="5.774000mm" y1="0.937000mm" x2="6.580000mm" y2="0.603000mm" />
  <line x1="6.580000mm" y1="0.603000mm" x2="7.412000mm" y2="0.341000mm" />
  <line x1="7.412000mm" y1="0.341000mm" x2="8.264000mm" y2="0.152000mm" />
  <line x1="8.264000mm" y1="0.152000mm" x2="9.128000mm" y2="0.038000mm" />
  <line x1="9.128000mm" y1="0.038000mm" x2="10.000000mm" y2="0.000000mm" />
  <line x1="10.000000mm" y1="0.000000mm" x2="464.500000mm" y2="0.000000mm" />
  <line x1="464.500000mm" y1="0.000000mm" x2="465.372000mm" y2="0.038000mm" />
  <line x1="465.372000mm" y1="0.038000mm" x2="466.236000mm" y2="0.152000mm" />
  <line x1="466.236000mm" y1="0.152000mm" x2="467.088000mm" y2="0.341000mm" />
  <line x1="467.088000mm" y1="0.341000mm" x2="467.920000mm" y2="0.603000mm" />
  <line x1="467.920000mm" y1="0.603000mm" x2="468.726000mm" y2="0.937000mm" />
  <line x1="468.726000mm" y1="0.937000mm" x2="469.500000mm" y2="1.340000mm" />
  <line x1="469.500000mm" y1="1.340000mm" x2="470.236000mm" y2="1.808000mm" />
  <line x1="470.236000mm" y1="1.808000mm" x2="470.928000mm" y2="2.340000mm" />
  <line x1="470.928000mm" y1="2.340000mm" x2="471.571000mm" y2="2.929000mm" />
  <line x1="471.571000mm" y1="2.929000mm" x2="472.160000mm" y2="3.572000mm" />
  <line x1="472.160000mm" y1="3.572000mm" x2="472.692000mm" y2="4.264000mm" />
  <line x1="472.692000mm" y1="4.264000mm" x2="473.160000mm" y2="5.000000mm" />
  <line x1="473.160000mm" y1="5.000000mm" x2="473.563000mm" y2="5.774000mm" />
  <line x1="473.563000mm" y1="5.774000mm" x2="473.897000mm" y2="6.580000mm" />
  <line x1="473.897000mm" y1="6.580000mm" x2="474.159000mm" y2="7.412000mm" />
  <line x1="474.159000mm" y1="7.412000mm" x2="474.348000mm" y2="8.264000mm" />
  <line x1="474.348000mm" y1="8.264000mm" x2="474.462000mm" y2="9.128000mm" />
  <line x1="474.462000mm" y1="9.128000mm" x2="474.500000mm" y2="10.000000mm" />
  <line x1="474.500000mm" y1="10.000000mm" x2="474.500000mm" y2="412.000000mm" />
  <line x1="474.500000mm" y1="412.000000mm" x2="474.462000mm" y2="412.872000mm" />
  <line x1="474.462000mm" y1="412.872000mm" x2="474.348000mm" y2="413.736000mm" />
  <line x1="474.348000mm" y1="413.736000mm" x2="474.159000mm" y2="414.588000mm" />
  <line x1="474.159000mm" y1="414.588000mm" x2="473.897000mm" y2="415.420000mm" />
  <line x1="473.897000mm" y1="415.420000mm" x2="473.563000mm" y2="416.226000mm" />
  <line x1="473.563000mm" y1="416.226000mm" x2="473.160000mm" y2="417.000000mm" />
  <line x1="473.160000mm" y1="417.000000mm" x2="472.692000mm" y2="417.736000mm" />
  <line x1="472.692000mm" y1="417.736000mm" x2="472.160000mm" y2="418.428000mm" />
  <line x1="472.160000mm" y1="418.428000mm" x2="471.571000mm" y2="419.071000mm" />
  <line x1="471.571000mm" y1="419.071000mm" x2="470.928000mm" y2="419.660000mm" />
  <line x1="470.928000mm" y1="419.660000mm" x2="470.236000mm" y2="420.192000mm" />
  <line x1="470.236000mm" y1="420.192000mm" x2="469.500000mm" y2="420.660000mm" />
  <line x1="469.500000mm" y1="420.660000mm" x2="468.726000mm" y2="421.063000mm" />
  <line x1="468.726000mm" y1="421.063000mm" x2="467.920000mm" y2="421.397000mm" />
  <line x1="467.920000mm" y1="421.397000mm" x2="467.088000mm" y2="421.659000mm" />
  <line x1="467.088000mm" y1="421.659000mm" x2="466.236000mm" y2="421.848000mm" />
  <line x1="466.236000mm" y1="421.848000mm" x2="465.372000mm" y2="421.962000mm" />
  <line x1="465.372000mm" y1="421.962000mm" x2="464.500000mm" y2="422.000000mm" />
  <line x1="464.500000mm" y1="422.000000mm" x2="10.000000mm" y2="422.000000mm" />
  <line x1="10.000000mm" y1="422.000000mm" x2="9.128000mm" y2="421.962000mm" />
  <line x1="9.128000mm" y1="421.962000mm" x2="8.264000mm" y2="421.848000mm" />
  <line x1="8.264000mm" y1="421.848000mm" x2="7.412000mm" y2="421.659000mm" />
  <line x1="7.412000mm" y1="421.659000mm" x2="6.580000mm" y2="421.397000mm" />
  <line x1="6.580000mm" y1="421.397000mm" x2="5.774000mm" y2="421.063000mm" />
  <line x1="5.774000mm" y1="421.063000mm" x2="5.000000mm" y2="420.660000mm" />
  <line x1="5.000000mm" y1="420.660000mm" x2="4.264000mm" y2="420.192000mm" />
  <line x1="4.264000mm" y1="420.192000mm" x2="3.572000mm" y2="419.660000mm" />
  <line x1="3.572000mm" y1="419.660000mm" x2="2.929000mm" y2="419.071000mm" />
  <line x1="2.929000mm" y1="419.071000mm" x2="2.340000mm" y2="418.428000mm" />
  <line x1="2.340000mm" y1="418.428000mm" x2="1.808000mm" y2="417.736000mm" />
  <line x1="1.808000mm" y1="417.736000mm" x2="1.340000mm" y2="417.000000mm" />
  <line x1="1.340000mm" y1="417.000000mm" x2="0.937000mm" y2="416.226000mm" />
  <line x1="0.937000mm" y1="416.226000mm" x2="0.603000mm" y2="415.420000mm" />
  <line x1="0.603000mm" y1="415.420000mm" x2="0.341000mm" y2="414.588000mm" />
  <line x1="0.341000mm" y1="414.588000mm" x2="0.152000mm" y2="413.736000mm" />
  <line x1="0.152000mm" y1="413.736000mm" x2="0.038000mm" y2="412.872000mm" />
  <circle cx="20.309456mm" cy="146.300195mm" r="1.649827mm" fill="none"/>
  <line x1="23.609111mm" y1="146.300195mm" x2="17.009802mm" y2="146.300195mm" />
  <line x1="20.309456mm" y1="143.000541mm" x2="20.309456mm" y2="149.599849mm" />
  <text x="21mm" y="144mm" font-size="24">
   3.3
  </text>
  <circle cx="32.499971mm" cy="210.999864mm" r="4.000103mm" fill="none"/>
  <line x1="40.500177mm" y1="210.999864mm" x2="24.499766mm" y2="210.999864mm" />
  <line x1="32.499971mm" y1="202.999659mm" x2="32.499971mm" y2="219.000070mm" />
  <text x="36mm" y="206mm" font-size="24">
   8.0
  </text>
  <circle cx="74.200037mm" cy="20.309798mm" r="1.650231mm" fill="none"/>
  <line x1="77.500499mm" y1="20.309798mm" x2="70.899575mm" y2="20.309798mm" />
  <line x1="74.200037mm" y1="17.009336mm" x2="74.200037mm" y2="23.610260mm" />
  <text x="75mm" y="18mm" font-size="24">
   3.3
  </text>
  <circle cx="85.689456mm" cy="146.300195mm" r="1.649827mm" fill="none"/>
  <line x1="88.989111mm" y1="146.300195mm" x2="82.389802mm" y2="146.300195mm" />
  <line x1="85.689456mm" y1="143.000541mm" x2="85.689456mm" y2="149.599849mm" />
  <text x="87mm" y="144mm" font-size="24">
   3.3
  </text>
  <circle cx="132.999893mm" cy="413.499999mm" r="1.650220mm" fill="none"/>
  <line x1="136.300333mm" y1="413.499999mm" x2="129.699453mm" y2="413.499999mm" />
  <line x1="132.999893mm" y1="410.199559mm" x2="132.999893mm" y2="416.800439mm" />
  <text x="134mm" y="411mm" font-size="24">
   3.3
  </text>
  <circle cx="132.999893mm" cy="8.499999mm" r="1.650220mm" fill="none"/>
  <line x1="136.300333mm" y1="8.499999mm" x2="129.699453mm" y2="8.499999mm" />
  <line x1="132.999893mm" y1="5.199559mm" x2="132.999893mm" y2="11.800439mm" />
  <text x="134mm" y="6mm" font-size="24">
   3.3
  </text>
  <circle cx="167.999893mm" cy="413.499999mm" r="1.650220mm" fill="none"/>
  <line x1="171.300333mm" y1="413.499999mm" x2="164.699453mm" y2="413.499999mm" />
  <line x1="167.999893mm" y1="410.199559mm" x2="167.999893mm" y2="416.800439mm" />
  <text x="169mm" y="411mm" font-size="24">
   3.3
  </text>
  <circle cx="167.999893mm" cy="8.499999mm" r="1.650220mm" fill="none"/>
  <line x1="171.300333mm" y1="8.499999mm" x2="164.699453mm" y2="8.499999mm" />
  <line x1="167.999893mm" y1="5.199559mm" x2="167.999893mm" y2="11.800439mm" />
  <text x="169mm" y="6mm" font-size="24">
   3.3
  </text>
  <circle cx="198.989456mm" cy="22.500195mm" r="1.649827mm" fill="none"/>
  <line x1="202.289111mm" y1="22.500195mm" x2="195.689802mm" y2="22.500195mm" />
  <line x1="198.989456mm" y1="19.200541mm" x2="198.989456mm" y2="25.799849mm" />
  <text x="200mm" y="20mm" font-size="24">
   3.3
  </text>
  <circle cx="209.289456mm" cy="114.200195mm" r="1.649827mm" fill="none"/>
  <line x1="212.589111mm" y1="114.200195mm" x2="205.989802mm" y2="114.200195mm" />
  <line x1="209.289456mm" y1="110.900541mm" x2="209.289456mm" y2="117.499849mm" />
  <text x="210mm" y="112mm" font-size="24">
   3.3
  </text>
  <circle cx="217.490037mm" cy="414.499798mm" r="1.650231mm" fill="none"/>
  <line x1="220.790499mm" y1="414.499798mm" x2="214.189575mm" y2="414.499798mm" />
  <line x1="217.490037mm" y1="411.199336mm" x2="217.490037mm" y2="417.800260mm" />
  <text x="219mm" y="412mm" font-size="24">
   3.3
  </text>
  <circle cx="217.490037mm" cy="351.499798mm" r="1.650231mm" fill="none"/>
  <line x1="220.790499mm" y1="351.499798mm" x2="214.189575mm" y2="351.499798mm" />
  <line x1="217.490037mm" y1="348.199336mm" x2="217.490037mm" y2="354.800260mm" />
  <text x="219mm" y="349mm" font-size="24">
   3.3
  </text>
  <circle cx="247.490037mm" cy="414.499798mm" r="1.650231mm" fill="none"/>
  <line x1="250.790499mm" y1="414.499798mm" x2="244.189575mm" y2="414.499798mm" />
  <line x1="247.490037mm" y1="411.199336mm" x2="247.490037mm" y2="417.800260mm" />
  <text x="249mm" y="412mm" font-size="24">
   3.3
  </text>
  <circle cx="247.490037mm" cy="351.499798mm" r="1.650231mm" fill="none"/>
  <line x1="250.790499mm" y1="351.499798mm" x2="244.189575mm" y2="351.499798mm" />
  <line x1="247.490037mm" y1="348.199336mm" x2="247.490037mm" y2="354.800260mm" />
  <text x="249mm" y="349mm" font-size="24">
   3.3
  </text>
  <circle cx="251.709456mm" cy="114.200195mm" r="1.649827mm" fill="none"/>
  <line x1="255.009111mm" y1="114.200195mm" x2="248.409802mm" y2="114.200195mm" />
  <line x1="251.709456mm" y1="110.900541mm" x2="251.709456mm" y2="117.499849mm" />
  <text x="253mm" y="112mm" font-size="24">
   3.3
  </text>
  <circle cx="257.250037mm" cy="68.499798mm" r="1.650231mm" fill="none"/>
  <line x1="260.550499mm" y1="68.499798mm" x2="253.949575mm" y2="68.499798mm" />
  <line x1="257.250037mm" y1="65.199336mm" x2="257.250037mm" y2="71.800260mm" />
  <text x="258mm" y="66mm" font-size="24">
   3.3
  </text>
  <circle cx="293.000037mm" cy="347.499798mm" r="1.650231mm" fill="none"/>
  <line x1="296.300499mm" y1="347.499798mm" x2="289.699575mm" y2="347.499798mm" />
  <line x1="293.000037mm" y1="344.199336mm" x2="293.000037mm" y2="350.800260mm" />
  <text x="294mm" y="345mm" font-size="24">
   3.3
  </text>
  <circle cx="293.000037mm" cy="84.499798mm" r="1.650231mm" fill="none"/>
  <line x1="296.300499mm" y1="84.499798mm" x2="289.699575mm" y2="84.499798mm" />
  <line x1="293.000037mm" y1="81.199336mm" x2="293.000037mm" y2="87.800260mm" />
  <text x="294mm" y="82mm" font-size="24">
   3.3
  </text>
  <circle cx="328.000037mm" cy="347.499798mm" r="1.650231mm" fill="none"/>
  <line x1="331.300499mm" y1="347.499798mm" x2="324.699575mm" y2="347.499798mm" />
  <line x1="328.000037mm" y1="344.199336mm" x2="328.000037mm" y2="350.800260mm" />
  <text x="329mm" y="345mm" font-size="24">
   3.3
  </text>
  <circle cx="328.000037mm" cy="84.499798mm" r="1.650231mm" fill="none"/>
  <line x1="331.300499mm" y1="84.499798mm" x2="324.699575mm" y2="84.499798mm" />
  <line x1="328.000037mm" y1="81.199336mm" x2="328.000037mm" y2="87.800260mm" />
  <text x="329mm" y="82mm" font-size="24">
   3.3
  </text>
  <circle cx="346.499456mm" cy="329.000195mm" r="1.649827mm" fill="none"/>
  <line x1="349.799111mm" y1="329.000195mm" x2="343.199802mm" y2="329.000195mm" />
  <line x1="346.499456mm" y1="325.700541mm" x2="346.499456mm" y2="332.299849mm" />
  <text x="348mm" y="327mm" font-size="24">
   3.3
  </text>
  <circle cx="346.499456mm" cy="143.100195mm" r="1.649827mm" fill="none"/>
  <line x1="349.799111mm" y1="143.100195mm" x2="343.199802mm" y2="143.100195mm" />
  <line x1="346.499456mm" y1="139.800541mm" x2="346.499456mm" y2="146.399849mm" />
  <text x="348mm" y="141mm" font-size="24">
   3.3
  </text>
  <circle cx="355.799893mm" cy="20.309999mm" r="1.650220mm" fill="none"/>
  <line x1="359.100333mm" y1="20.309999mm" x2="352.499453mm" y2="20.309999mm" />
  <line x1="355.799893mm" y1="17.009559mm" x2="355.799893mm" y2="23.610439mm" />
  <text x="357mm" y="18mm" font-size="24">
   3.3
  </text>
  <circle cx="397.499971mm" cy="210.999864mm" r="4.000103mm" fill="none"/>
  <line x1="405.500177mm" y1="210.999864mm" x2="389.499766mm" y2="210.999864mm" />
  <line x1="397.499971mm" y1="202.999659mm" x2="397.499971mm" y2="219.000070mm" />
  <text x="401mm" y="206mm" font-size="24">
   8.0
  </text>
  <circle cx="396.309456mm" cy="146.300195mm" r="1.649827mm" fill="none"/>
  <line x1="399.609111mm" y1="146.300195mm" x2="393.009802mm" y2="146.300195mm" />
  <line x1="396.309456mm" y1="143.000541mm" x2="396.309456mm" y2="149.599849mm" />
  <text x="397mm" y="144mm" font-size="24">
   3.3
  </text>
  <circle cx="454.189456mm" cy="146.300195mm" r="1.649827mm" fill="none"/>
  <line x1="457.489111mm" y1="146.300195mm" x2="450.889802mm" y2="146.300195mm" />
  <line x1="454.189456mm" y1="143.000541mm" x2="454.189456mm" y2="149.599849mm" />
  <text x="455mm" y="144mm" font-size="24">
   3.3
  </text>
  <circle cx="457.900037mm" cy="127.099798mm" r="1.650231mm" fill="none"/>
  <line x1="461.200499mm" y1="127.099798mm" x2="454.599575mm" y2="127.099798mm" />
  <line x1="457.900037mm" y1="123.799336mm" x2="457.900037mm" y2="130.400260mm" />
  <text x="459mm" y="125mm" font-size="24">
   3.3
  </text>
 </g>
</svg>
