<?xml version="1.0"?>
<svg xmlns="http://www.w3.org/2000/svg" version="1.1" height="172mm" width="395mm" >
 <g style="fill-opacity:1.0; stroke:black; stroke-width:1;">
  <line x1="385.000000mm" y1="161.500000mm" x2="385.000000mm" y2="161.500000mm" />
  <line x1="385.000000mm" y1="161.500000mm" x2="0.000000mm" y2="161.500000mm" />
  <line x1="0.000000mm" y1="161.500000mm" x2="0.000000mm" y2="0.000000mm" />
  <line x1="0.000000mm" y1="0.000000mm" x2="375.000000mm" y2="0.000000mm" />
  <line x1="375.000000mm" y1="0.000000mm" x2="375.872000mm" y2="0.038000mm" />
  <line x1="375.872000mm" y1="0.038000mm" x2="376.736000mm" y2="0.152000mm" />
  <line x1="376.736000mm" y1="0.152000mm" x2="377.588000mm" y2="0.341000mm" />
  <line x1="377.588000mm" y1="0.341000mm" x2="378.420000mm" y2="0.603000mm" />
  <line x1="378.420000mm" y1="0.603000mm" x2="379.226000mm" y2="0.937000mm" />
  <line x1="379.226000mm" y1="0.937000mm" x2="380.000000mm" y2="1.340000mm" />
  <line x1="380.000000mm" y1="1.340000mm" x2="380.736000mm" y2="1.808000mm" />
  <line x1="380.736000mm" y1="1.808000mm" x2="381.428000mm" y2="2.340000mm" />
  <line x1="381.428000mm" y1="2.340000mm" x2="382.071000mm" y2="2.929000mm" />
  <line x1="382.071000mm" y1="2.929000mm" x2="382.660000mm" y2="3.572000mm" />
  <line x1="382.660000mm" y1="3.572000mm" x2="383.192000mm" y2="4.264000mm" />
  <line x1="383.192000mm" y1="4.264000mm" x2="383.660000mm" y2="5.000000mm" />
  <line x1="383.660000mm" y1="5.000000mm" x2="384.063000mm" y2="5.774000mm" />
  <line x1="384.063000mm" y1="5.774000mm" x2="384.397000mm" y2="6.580000mm" />
  <line x1="384.397000mm" y1="6.580000mm" x2="384.659000mm" y2="7.412000mm" />
  <line x1="384.659000mm" y1="7.412000mm" x2="384.848000mm" y2="8.264000mm" />
  <line x1="384.848000mm" y1="8.264000mm" x2="384.962000mm" y2="9.128000mm" />
  <line x1="384.962000mm" y1="9.128000mm" x2="385.000000mm" y2="10.000000mm" />
  <line x1="385.000000mm" y1="10.000000mm" x2="385.000000mm" y2="161.500000mm" />
  <circle cx="8.200066mm" cy="30.920138mm" r="1.000138mm" fill="none"/>
  <line x1="10.200342mm" y1="30.920138mm" x2="6.199790mm" y2="30.920138mm" />
  <line x1="8.200066mm" y1="28.919862mm" x2="8.200066mm" y2="32.920414mm" />
  <text x="9mm" y="29mm" font-size="24">
   2.0
  </text>
  <circle cx="8.200066mm" cy="9.700138mm" r="1.000138mm" fill="none"/>
  <line x1="10.200342mm" y1="9.700138mm" x2="6.199790mm" y2="9.700138mm" />
  <line x1="8.200066mm" y1="7.699862mm" x2="8.200066mm" y2="11.700414mm" />
  <text x="9mm" y="8mm" font-size="24">
   2.0
  </text>
  <circle cx="26.100371mm" cy="153.299769mm" r="1.000161mm" fill="none"/>
  <line x1="28.100692mm" y1="153.299769mm" x2="24.100050mm" y2="153.299769mm" />
  <line x1="26.100371mm" y1="151.299448mm" x2="26.100371mm" y2="155.300090mm" />
  <text x="27mm" y="152mm" font-size="24">
   2.0
  </text>
  <circle cx="47.320371mm" cy="153.299769mm" r="1.000161mm" fill="none"/>
  <line x1="49.320692mm" y1="153.299769mm" x2="45.320050mm" y2="153.299769mm" />
  <line x1="47.320371mm" y1="151.299448mm" x2="47.320371mm" y2="155.300090mm" />
  <text x="48mm" y="152mm" font-size="24">
   2.0
  </text>
  <circle cx="51.749964mm" cy="138.849964mm" r="2.200229mm" fill="none"/>
  <line x1="56.150421mm" y1="138.849964mm" x2="47.349507mm" y2="138.849964mm" />
  <line x1="51.749964mm" y1="134.449507mm" x2="51.749964mm" y2="143.250421mm" />
  <text x="53mm" y="136mm" font-size="24">
   4.4
  </text>
  <circle cx="51.749964mm" cy="67.349964mm" r="2.200229mm" fill="none"/>
  <line x1="56.150421mm" y1="67.349964mm" x2="47.349507mm" y2="67.349964mm" />
  <line x1="51.749964mm" y1="62.949507mm" x2="51.749964mm" y2="71.750421mm" />
  <text x="53mm" y="65mm" font-size="24">
   4.4
  </text>
  <circle cx="87.500225mm" cy="103.099651mm" r="37.499925mm" fill="none"/>
  <line x1="162.500075mm" y1="103.099651mm" x2="12.500375mm" y2="103.099651mm" />
  <line x1="87.500225mm" y1="28.099800mm" x2="87.500225mm" y2="178.099501mm" />
  <text x="125mm" y="65mm" font-size="24">
   75.0
  </text>
  <circle cx="123.249964mm" cy="138.849964mm" r="2.200229mm" fill="none"/>
  <line x1="127.650421mm" y1="138.849964mm" x2="118.849507mm" y2="138.849964mm" />
  <line x1="123.249964mm" y1="134.449507mm" x2="123.249964mm" y2="143.250421mm" />
  <text x="125mm" y="136mm" font-size="24">
   4.4
  </text>
  <circle cx="123.249964mm" cy="67.349964mm" r="2.200229mm" fill="none"/>
  <line x1="127.650421mm" y1="67.349964mm" x2="118.849507mm" y2="67.349964mm" />
  <line x1="123.249964mm" y1="62.949507mm" x2="123.249964mm" y2="71.750421mm" />
  <text x="125mm" y="65mm" font-size="24">
   4.4
  </text>
  <circle cx="255.464361mm" cy="82.599847mm" r="1.000116mm" fill="none"/>
  <line x1="257.464593mm" y1="82.599847mm" x2="253.464129mm" y2="82.599847mm" />
  <line x1="255.464361mm" y1="80.599615mm" x2="255.464361mm" y2="84.600079mm" />
  <text x="256mm" y="81mm" font-size="24">
   2.0
  </text>
  <circle cx="313.079808mm" cy="153.500013mm" r="2.999761mm" fill="none"/>
  <line x1="319.079330mm" y1="153.500013mm" x2="307.080285mm" y2="153.500013mm" />
  <line x1="313.079808mm" y1="147.500490mm" x2="313.079808mm" y2="159.499535mm" />
  <text x="316mm" y="150mm" font-size="24">
   6.0
  </text>
  <circle cx="324.579818mm" cy="154.500055mm" r="2.000011mm" fill="none"/>
  <line x1="328.579840mm" y1="154.500055mm" x2="320.579795mm" y2="154.500055mm" />
  <line x1="324.579818mm" y1="150.500033mm" x2="324.579818mm" y2="158.500077mm" />
  <text x="326mm" y="152mm" font-size="24">
   4.0
  </text>
  <circle cx="337.680371mm" cy="153.299769mm" r="1.000161mm" fill="none"/>
  <line x1="339.680692mm" y1="153.299769mm" x2="335.680050mm" y2="153.299769mm" />
  <line x1="337.680371mm" y1="151.299448mm" x2="337.680371mm" y2="155.300090mm" />
  <text x="338mm" y="152mm" font-size="24">
   2.0
  </text>
  <circle cx="358.900371mm" cy="153.299769mm" r="1.000161mm" fill="none"/>
  <line x1="360.900692mm" y1="153.299769mm" x2="356.900050mm" y2="153.299769mm" />
  <line x1="358.900371mm" y1="151.299448mm" x2="358.900371mm" y2="155.300090mm" />
  <text x="359mm" y="152mm" font-size="24">
   2.0
  </text>
 </g>
</svg>
