<?xml version="1.0"?>
<svg xmlns="http://www.w3.org/2000/svg" version="1.1" height="47mm" width="432mm" >
 <g style="fill-opacity:1.0; stroke:black; stroke-width:1;">
  <line x1="0.037000mm" y1="32.570000mm" x2="0.037000mm" y2="32.570000mm" />
  <line x1="0.037000mm" y1="32.570000mm" x2="0.000000mm" y2="32.073000mm" />
  <line x1="0.000000mm" y1="32.073000mm" x2="0.004000mm" y2="4.749000mm" />
  <line x1="0.004000mm" y1="4.749000mm" x2="0.054000mm" y2="4.253000mm" />
  <line x1="0.054000mm" y1="4.253000mm" x2="0.153000mm" y2="3.764000mm" />
  <line x1="0.153000mm" y1="3.764000mm" x2="0.300000mm" y2="3.288000mm" />
  <line x1="0.300000mm" y1="3.288000mm" x2="0.493000mm" y2="2.829000mm" />
  <line x1="0.493000mm" y1="2.829000mm" x2="0.732000mm" y2="2.391000mm" />
  <line x1="0.732000mm" y1="2.391000mm" x2="1.012000mm" y2="1.979000mm" />
  <line x1="1.012000mm" y1="1.979000mm" x2="1.333000mm" y2="1.597000mm" />
  <line x1="1.333000mm" y1="1.597000mm" x2="1.690000mm" y2="1.249000mm" />
  <line x1="1.690000mm" y1="1.249000mm" x2="2.079000mm" y2="0.938000mm" />
  <line x1="2.079000mm" y1="0.938000mm" x2="2.498000mm" y2="0.668000mm" />
  <line x1="2.498000mm" y1="0.668000mm" x2="2.942000mm" y2="0.440000mm" />
  <line x1="2.942000mm" y1="0.440000mm" x2="3.406000mm" y2="0.258000mm" />
  <line x1="3.406000mm" y1="0.258000mm" x2="3.885000mm" y2="0.123000mm" />
  <line x1="3.885000mm" y1="0.123000mm" x2="4.376000mm" y2="0.037000mm" />
  <line x1="4.376000mm" y1="0.037000mm" x2="4.873000mm" y2="0.000000mm" />
  <line x1="4.873000mm" y1="0.000000mm" x2="417.247000mm" y2="0.004000mm" />
  <line x1="417.247000mm" y1="0.004000mm" x2="417.743000mm" y2="0.054000mm" />
  <line x1="417.743000mm" y1="0.054000mm" x2="418.232000mm" y2="0.153000mm" />
  <line x1="418.232000mm" y1="0.153000mm" x2="418.708000mm" y2="0.300000mm" />
  <line x1="418.708000mm" y1="0.300000mm" x2="419.167000mm" y2="0.493000mm" />
  <line x1="419.167000mm" y1="0.493000mm" x2="419.605000mm" y2="0.732000mm" />
  <line x1="419.605000mm" y1="0.732000mm" x2="420.017000mm" y2="1.012000mm" />
  <line x1="420.017000mm" y1="1.012000mm" x2="420.399000mm" y2="1.333000mm" />
  <line x1="420.399000mm" y1="1.333000mm" x2="420.747000mm" y2="1.690000mm" />
  <line x1="420.747000mm" y1="1.690000mm" x2="421.058000mm" y2="2.079000mm" />
  <line x1="421.058000mm" y1="2.079000mm" x2="421.328000mm" y2="2.498000mm" />
  <line x1="421.328000mm" y1="2.498000mm" x2="421.556000mm" y2="2.942000mm" />
  <line x1="421.556000mm" y1="2.942000mm" x2="421.738000mm" y2="3.406000mm" />
  <line x1="421.738000mm" y1="3.406000mm" x2="421.873000mm" y2="3.885000mm" />
  <line x1="421.873000mm" y1="3.885000mm" x2="421.959000mm" y2="4.376000mm" />
  <line x1="421.959000mm" y1="4.376000mm" x2="421.996000mm" y2="4.873000mm" />
  <line x1="421.996000mm" y1="4.873000mm" x2="421.992000mm" y2="32.197000mm" />
  <line x1="421.992000mm" y1="32.197000mm" x2="421.942000mm" y2="32.693000mm" />
  <line x1="421.942000mm" y1="32.693000mm" x2="421.843000mm" y2="33.182000mm" />
  <line x1="421.843000mm" y1="33.182000mm" x2="421.696000mm" y2="33.658000mm" />
  <line x1="421.696000mm" y1="33.658000mm" x2="421.503000mm" y2="34.117000mm" />
  <line x1="421.503000mm" y1="34.117000mm" x2="421.264000mm" y2="34.555000mm" />
  <line x1="421.264000mm" y1="34.555000mm" x2="420.984000mm" y2="34.967000mm" />
  <line x1="420.984000mm" y1="34.967000mm" x2="420.663000mm" y2="35.349000mm" />
  <line x1="420.663000mm" y1="35.349000mm" x2="420.306000mm" y2="35.697000mm" />
  <line x1="420.306000mm" y1="35.697000mm" x2="419.917000mm" y2="36.008000mm" />
  <line x1="419.917000mm" y1="36.008000mm" x2="419.498000mm" y2="36.278000mm" />
  <line x1="419.498000mm" y1="36.278000mm" x2="419.054000mm" y2="36.506000mm" />
  <line x1="419.054000mm" y1="36.506000mm" x2="418.590000mm" y2="36.688000mm" />
  <line x1="418.590000mm" y1="36.688000mm" x2="418.111000mm" y2="36.823000mm" />
  <line x1="418.111000mm" y1="36.823000mm" x2="417.620000mm" y2="36.909000mm" />
  <line x1="417.620000mm" y1="36.909000mm" x2="417.123000mm" y2="36.946000mm" />
  <line x1="417.123000mm" y1="36.946000mm" x2="4.749000mm" y2="36.942000mm" />
  <line x1="4.749000mm" y1="36.942000mm" x2="4.253000mm" y2="36.892000mm" />
  <line x1="4.253000mm" y1="36.892000mm" x2="3.764000mm" y2="36.793000mm" />
  <line x1="3.764000mm" y1="36.793000mm" x2="3.288000mm" y2="36.646000mm" />
  <line x1="3.288000mm" y1="36.646000mm" x2="2.829000mm" y2="36.453000mm" />
  <line x1="2.829000mm" y1="36.453000mm" x2="2.391000mm" y2="36.214000mm" />
  <line x1="2.391000mm" y1="36.214000mm" x2="1.979000mm" y2="35.934000mm" />
  <line x1="1.979000mm" y1="35.934000mm" x2="1.597000mm" y2="35.613000mm" />
  <line x1="1.597000mm" y1="35.613000mm" x2="1.249000mm" y2="35.256000mm" />
  <line x1="1.249000mm" y1="35.256000mm" x2="0.938000mm" y2="34.867000mm" />
  <line x1="0.938000mm" y1="34.867000mm" x2="0.668000mm" y2="34.448000mm" />
  <line x1="0.668000mm" y1="34.448000mm" x2="0.440000mm" y2="34.004000mm" />
  <line x1="0.440000mm" y1="34.004000mm" x2="0.258000mm" y2="33.540000mm" />
  <line x1="0.258000mm" y1="33.540000mm" x2="0.123000mm" y2="33.061000mm" />
  <line x1="0.123000mm" y1="33.061000mm" x2="0.037000mm" y2="32.570000mm" />
  <circle cx="18.402456mm" cy="31.948195mm" r="1.649827mm" fill="none"/>
  <line x1="21.702111mm" y1="31.948195mm" x2="15.102802mm" y2="31.948195mm" />
  <line x1="18.402456mm" y1="28.648541mm" x2="18.402456mm" y2="35.247849mm" />
  <text x="20mm" y="30mm" font-size="24">
   3.3
  </text>
  <circle cx="18.402456mm" cy="4.998195mm" r="1.649827mm" fill="none"/>
  <line x1="21.702111mm" y1="4.998195mm" x2="15.102802mm" y2="4.998195mm" />
  <line x1="18.402456mm" y1="1.698541mm" x2="18.402456mm" y2="8.297849mm" />
  <text x="20mm" y="3mm" font-size="24">
   3.3
  </text>
  <circle cx="20.308118mm" cy="18.472873mm" r="1.500017mm" fill="none"/>
  <line x1="23.308152mm" y1="18.472873mm" x2="17.308085mm" y2="18.472873mm" />
  <line x1="20.308118mm" y1="15.472839mm" x2="20.308118mm" y2="21.472907mm" />
  <text x="21mm" y="16mm" font-size="24">
   3.0
  </text>
  <circle cx="401.688118mm" cy="18.472873mm" r="1.500017mm" fill="none"/>
  <line x1="404.688152mm" y1="18.472873mm" x2="398.688085mm" y2="18.472873mm" />
  <line x1="401.688118mm" y1="15.472839mm" x2="401.688118mm" y2="21.472907mm" />
  <text x="403mm" y="16mm" font-size="24">
   3.0
  </text>
  <circle cx="403.592456mm" cy="31.948195mm" r="1.649827mm" fill="none"/>
  <line x1="406.892111mm" y1="31.948195mm" x2="400.292802mm" y2="31.948195mm" />
  <line x1="403.592456mm" y1="28.648541mm" x2="403.592456mm" y2="35.247849mm" />
  <text x="405mm" y="30mm" font-size="24">
   3.3
  </text>
  <circle cx="403.592456mm" cy="4.998195mm" r="1.649827mm" fill="none"/>
  <line x1="406.892111mm" y1="4.998195mm" x2="400.292802mm" y2="4.998195mm" />
  <line x1="403.592456mm" y1="1.698541mm" x2="403.592456mm" y2="8.297849mm" />
  <text x="405mm" y="3mm" font-size="24">
   3.3
  </text>
 </g>
</svg>
