  0
SECTION
  2
BLOCKS
  0
ENDSEC
  0
SECTION
  2
ENTITIES
  0
LINE
  8
0
 10
-201.227
 11
-201.227
 20
-13.721
 21
-13.229
  0
LINE
  8
0
 10
-201.227
 11
-201.082
 20
-13.229
 21
-12.759
  0
LINE
  8
0
 10
-201.082
 11
-200.805
 20
-12.759
 21
-12.353
  0
LINE
  8
0
 10
-200.805
 11
-200.42
 20
-12.353
 21
-12.046
  0
LINE
  8
0
 10
-200.42
 11
-199.962
 20
-12.046
 21
-11.866
  0
LINE
  8
0
 10
-199.962
 11
-199.472
 20
-11.866
 21
-11.83
  0
LINE
  8
0
 10
-199.472
 11
-198.992
 20
-11.83
 21
-11.939
  0
LINE
  8
0
 10
-198.992
 11
-198.566
 20
-11.939
 21
-12.185
  0
LINE
  8
0
 10
-198.566
 11
-198.232
 20
-12.185
 21
-12.546
  0
LINE
  8
0
 10
-198.232
 11
-198.018
 20
-12.546
 21
-12.989
  0
LINE
  8
0
 10
-198.018
 11
-197.945
 20
-12.989
 21
-13.475
  0
LINE
  8
0
 10
-197.945
 11
-198.018
 20
-13.475
 21
-13.961
  0
LINE
  8
0
 10
-198.018
 11
-198.232
 20
-13.961
 21
-14.404
  0
LINE
  8
0
 10
-198.232
 11
-198.566
 20
-14.404
 21
-14.765
  0
LINE
  8
0
 10
-198.566
 11
-198.992
 20
-14.765
 21
-15.011
  0
LINE
  8
0
 10
-198.992
 11
-199.472
 20
-15.011
 21
-15.12
  0
LINE
  8
0
 10
-199.472
 11
-199.962
 20
-15.12
 21
-15.084
  0
LINE
  8
0
 10
-199.962
 11
-200.42
 20
-15.084
 21
-14.904
  0
LINE
  8
0
 10
-200.42
 11
-200.805
 20
-14.904
 21
-14.597
  0
LINE
  8
0
 10
-200.805
 11
-201.082
 20
-14.597
 21
-14.191
  0
LINE
  8
0
 10
-201.082
 11
-201.227
 20
-14.191
 21
-13.721
  0
LINE
  8
0
 10
-201.227
 11
-201.227
 20
13.229
 21
13.721
  0
LINE
  8
0
 10
-201.227
 11
-201.082
 20
13.721
 21
14.191
  0
LINE
  8
0
 10
-201.082
 11
-200.805
 20
14.191
 21
14.597
  0
LINE
  8
0
 10
-200.805
 11
-200.42
 20
14.597
 21
14.904
  0
LINE
  8
0
 10
-200.42
 11
-199.962
 20
14.904
 21
15.084
  0
LINE
  8
0
 10
-199.962
 11
-199.472
 20
15.084
 21
15.12
  0
LINE
  8
0
 10
-199.472
 11
-198.992
 20
15.12
 21
15.011
  0
LINE
  8
0
 10
-198.992
 11
-198.566
 20
15.011
 21
14.765
  0
LINE
  8
0
 10
-198.566
 11
-198.232
 20
14.765
 21
14.404
  0
LINE
  8
0
 10
-198.232
 11
-198.018
 20
14.404
 21
13.961
  0
LINE
  8
0
 10
-198.018
 11
-197.945
 20
13.961
 21
13.475
  0
LINE
  8
0
 10
-197.945
 11
-198.018
 20
13.475
 21
12.989
  0
LINE
  8
0
 10
-198.018
 11
-198.232
 20
12.989
 21
12.546
  0
LINE
  8
0
 10
-198.232
 11
-198.566
 20
12.546
 21
12.185
  0
LINE
  8
0
 10
-198.566
 11
-198.992
 20
12.185
 21
11.939
  0
LINE
  8
0
 10
-198.992
 11
-199.472
 20
11.939
 21
11.83
  0
LINE
  8
0
 10
-199.472
 11
-199.962
 20
11.83
 21
11.866
  0
LINE
  8
0
 10
-199.962
 11
-200.42
 20
11.866
 21
12.046
  0
LINE
  8
0
 10
-200.42
 11
-200.805
 20
12.046
 21
12.353
  0
LINE
  8
0
 10
-200.805
 11
-201.082
 20
12.353
 21
12.759
  0
LINE
  8
0
 10
-201.082
 11
-201.227
 20
12.759
 21
13.229
  0
LINE
  8
0
 10
-199.17
 11
-199.17
 20
-0.247
 21
0.247
  0
LINE
  8
0
 10
-199.17
 11
-199.009
 20
0.247
 21
0.714
  0
LINE
  8
0
 10
-199.009
 11
-198.706
 20
0.714
 21
1.104
  0
LINE
  8
0
 10
-198.706
 11
-198.293
 20
1.104
 21
1.374
  0
LINE
  8
0
 10
-198.293
 11
-197.814
 20
1.374
 21
1.495
  0
LINE
  8
0
 10
-197.814
 11
-197.322
 20
1.495
 21
1.454
  0
LINE
  8
0
 10
-197.322
 11
-196.87
 20
1.454
 21
1.256
  0
LINE
  8
0
 10
-196.87
 11
-196.506
 20
1.256
 21
0.921
  0
LINE
  8
0
 10
-196.506
 11
-196.271
 20
0.921
 21
0.487
  0
LINE
  8
0
 10
-196.271
 11
-196.19
 20
0.487
 21
0
  0
LINE
  8
0
 10
-196.19
 11
-196.271
 20
0
 21
-0.487
  0
LINE
  8
0
 10
-196.271
 11
-196.506
 20
-0.487
 21
-0.921
  0
LINE
  8
0
 10
-196.506
 11
-196.87
 20
-0.921
 21
-1.256
  0
LINE
  8
0
 10
-196.87
 11
-197.322
 20
-1.256
 21
-1.454
  0
LINE
  8
0
 10
-197.322
 11
-197.814
 20
-1.454
 21
-1.495
  0
LINE
  8
0
 10
-197.814
 11
-198.293
 20
-1.495
 21
-1.374
  0
LINE
  8
0
 10
-198.293
 11
-198.706
 20
-1.374
 21
-1.104
  0
LINE
  8
0
 10
-198.706
 11
-199.009
 20
-1.104
 21
-0.714
  0
LINE
  8
0
 10
-199.009
 11
-199.17
 20
-0.714
 21
-0.247
  0
LINE
  8
0
 10
-217.998
 11
-217.994
 20
-13.6
 21
13.724
  0
LINE
  8
0
 10
-217.994
 11
-217.944
 20
13.724
 21
14.22
  0
LINE
  8
0
 10
-217.944
 11
-217.845
 20
14.22
 21
14.709
  0
LINE
  8
0
 10
-217.845
 11
-217.698
 20
14.709
 21
15.185
  0
LINE
  8
0
 10
-217.698
 11
-217.505
 20
15.185
 21
15.644
  0
LINE
  8
0
 10
-217.505
 11
-217.266
 20
15.644
 21
16.082
  0
LINE
  8
0
 10
-217.266
 11
-216.986
 20
16.082
 21
16.494
  0
LINE
  8
0
 10
-216.986
 11
-216.665
 20
16.494
 21
16.876
  0
LINE
  8
0
 10
-216.665
 11
-216.308
 20
16.876
 21
17.224
  0
LINE
  8
0
 10
-216.308
 11
-215.919
 20
17.224
 21
17.535
  0
LINE
  8
0
 10
-215.919
 11
-215.5
 20
17.535
 21
17.805
  0
LINE
  8
0
 10
-215.5
 11
-215.056
 20
17.805
 21
18.033
  0
LINE
  8
0
 10
-215.056
 11
-214.592
 20
18.033
 21
18.215
  0
LINE
  8
0
 10
-214.592
 11
-214.113
 20
18.215
 21
18.35
  0
LINE
  8
0
 10
-214.113
 11
-213.622
 20
18.35
 21
18.436
  0
LINE
  8
0
 10
-213.622
 11
-213.125
 20
18.436
 21
18.473
  0
LINE
  8
0
 10
-213.125
 11
213.249
 20
18.473
 21
18.469
  0
LINE
  8
0
 10
213.249
 11
213.745
 20
18.469
 21
18.419
  0
LINE
  8
0
 10
213.745
 11
214.234
 20
18.419
 21
18.32
  0
LINE
  8
0
 10
214.234
 11
214.71
 20
18.32
 21
18.173
  0
LINE
  8
0
 10
214.71
 11
215.169
 20
18.173
 21
17.98
  0
LINE
  8
0
 10
215.169
 11
215.607
 20
17.98
 21
17.741
  0
LINE
  8
0
 10
215.607
 11
216.019
 20
17.741
 21
17.461
  0
LINE
  8
0
 10
216.019
 11
216.401
 20
17.461
 21
17.14
  0
LINE
  8
0
 10
216.401
 11
216.749
 20
17.14
 21
16.783
  0
LINE
  8
0
 10
216.749
 11
217.06
 20
16.783
 21
16.394
  0
LINE
  8
0
 10
217.06
 11
217.33
 20
16.394
 21
15.975
  0
LINE
  8
0
 10
217.33
 11
217.558
 20
15.975
 21
15.531
  0
LINE
  8
0
 10
217.558
 11
217.74
 20
15.531
 21
15.067
  0
LINE
  8
0
 10
217.74
 11
217.875
 20
15.067
 21
14.588
  0
LINE
  8
0
 10
217.875
 11
217.961
 20
14.588
 21
14.097
  0
LINE
  8
0
 10
217.961
 11
217.998
 20
14.097
 21
13.6
  0
LINE
  8
0
 10
217.998
 11
217.994
 20
13.6
 21
-13.724
  0
LINE
  8
0
 10
217.994
 11
217.944
 20
-13.724
 21
-14.22
  0
LINE
  8
0
 10
217.944
 11
217.845
 20
-14.22
 21
-14.709
  0
LINE
  8
0
 10
217.845
 11
217.698
 20
-14.709
 21
-15.185
  0
LINE
  8
0
 10
217.698
 11
217.505
 20
-15.185
 21
-15.644
  0
LINE
  8
0
 10
217.505
 11
217.266
 20
-15.644
 21
-16.082
  0
LINE
  8
0
 10
217.266
 11
216.986
 20
-16.082
 21
-16.494
  0
LINE
  8
0
 10
216.986
 11
216.665
 20
-16.494
 21
-16.876
  0
LINE
  8
0
 10
216.665
 11
216.308
 20
-16.876
 21
-17.224
  0
LINE
  8
0
 10
216.308
 11
215.919
 20
-17.224
 21
-17.535
  0
LINE
  8
0
 10
215.919
 11
215.5
 20
-17.535
 21
-17.805
  0
LINE
  8
0
 10
215.5
 11
215.056
 20
-17.805
 21
-18.033
  0
LINE
  8
0
 10
215.056
 11
214.592
 20
-18.033
 21
-18.215
  0
LINE
  8
0
 10
214.592
 11
214.113
 20
-18.215
 21
-18.35
  0
LINE
  8
0
 10
214.113
 11
213.622
 20
-18.35
 21
-18.436
  0
LINE
  8
0
 10
213.622
 11
213.125
 20
-18.436
 21
-18.473
  0
LINE
  8
0
 10
213.125
 11
-213.249
 20
-18.473
 21
-18.469
  0
LINE
  8
0
 10
-213.249
 11
-213.745
 20
-18.469
 21
-18.419
  0
LINE
  8
0
 10
-213.745
 11
-214.234
 20
-18.419
 21
-18.32
  0
LINE
  8
0
 10
-214.234
 11
-214.71
 20
-18.32
 21
-18.173
  0
LINE
  8
0
 10
-214.71
 11
-215.169
 20
-18.173
 21
-17.98
  0
LINE
  8
0
 10
-215.169
 11
-215.607
 20
-17.98
 21
-17.741
  0
LINE
  8
0
 10
-215.607
 11
-216.019
 20
-17.741
 21
-17.461
  0
LINE
  8
0
 10
-216.019
 11
-216.401
 20
-17.461
 21
-17.14
  0
LINE
  8
0
 10
-216.401
 11
-216.749
 20
-17.14
 21
-16.783
  0
LINE
  8
0
 10
-216.749
 11
-217.06
 20
-16.783
 21
-16.394
  0
LINE
  8
0
 10
-217.06
 11
-217.33
 20
-16.394
 21
-15.975
  0
LINE
  8
0
 10
-217.33
 11
-217.558
 20
-15.975
 21
-15.531
  0
LINE
  8
0
 10
-217.558
 11
-217.74
 20
-15.531
 21
-15.067
  0
LINE
  8
0
 10
-217.74
 11
-217.875
 20
-15.067
 21
-14.588
  0
LINE
  8
0
 10
-217.875
 11
-217.961
 20
-14.588
 21
-14.097
  0
LINE
  8
0
 10
-217.961
 11
-217.998
 20
-14.097
 21
-13.6
  0
LINE
  8
0
 10
196.21
 11
196.21
 20
-0.247
 21
0.247
  0
LINE
  8
0
 10
196.21
 11
196.371
 20
0.247
 21
0.714
  0
LINE
  8
0
 10
196.371
 11
196.674
 20
0.714
 21
1.104
  0
LINE
  8
0
 10
196.674
 11
197.087
 20
1.104
 21
1.374
  0
LINE
  8
0
 10
197.087
 11
197.566
 20
1.374
 21
1.495
  0
LINE
  8
0
 10
197.566
 11
198.058
 20
1.495
 21
1.454
  0
LINE
  8
0
 10
198.058
 11
198.51
 20
1.454
 21
1.256
  0
LINE
  8
0
 10
198.51
 11
198.874
 20
1.256
 21
0.921
  0
LINE
  8
0
 10
198.874
 11
199.109
 20
0.921
 21
0.487
  0
LINE
  8
0
 10
199.109
 11
199.19
 20
0.487
 21
0
  0
LINE
  8
0
 10
199.19
 11
199.109
 20
0
 21
-0.487
  0
LINE
  8
0
 10
199.109
 11
198.874
 20
-0.487
 21
-0.921
  0
LINE
  8
0
 10
198.874
 11
198.51
 20
-0.921
 21
-1.256
  0
LINE
  8
0
 10
198.51
 11
198.058
 20
-1.256
 21
-1.454
  0
LINE
  8
0
 10
198.058
 11
197.566
 20
-1.454
 21
-1.495
  0
LINE
  8
0
 10
197.566
 11
197.087
 20
-1.495
 21
-1.374
  0
LINE
  8
0
 10
197.087
 11
196.674
 20
-1.374
 21
-1.104
  0
LINE
  8
0
 10
196.674
 11
196.371
 20
-1.104
 21
-0.714
  0
LINE
  8
0
 10
196.371
 11
196.21
 20
-0.714
 21
-0.247
  0
LINE
  8
0
 10
197.963
 11
197.963
 20
-13.721
 21
-13.229
  0
LINE
  8
0
 10
197.963
 11
198.108
 20
-13.229
 21
-12.759
  0
LINE
  8
0
 10
198.108
 11
198.385
 20
-12.759
 21
-12.353
  0
LINE
  8
0
 10
198.385
 11
198.77
 20
-12.353
 21
-12.046
  0
LINE
  8
0
 10
198.77
 11
199.228
 20
-12.046
 21
-11.866
  0
LINE
  8
0
 10
199.228
 11
199.718
 20
-11.866
 21
-11.83
  0
LINE
  8
0
 10
199.718
 11
200.198
 20
-11.83
 21
-11.939
  0
LINE
  8
0
 10
200.198
 11
200.624
 20
-11.939
 21
-12.185
  0
LINE
  8
0
 10
200.624
 11
200.958
 20
-12.185
 21
-12.546
  0
LINE
  8
0
 10
200.958
 11
201.172
 20
-12.546
 21
-12.989
  0
LINE
  8
0
 10
201.172
 11
201.245
 20
-12.989
 21
-13.475
  0
LINE
  8
0
 10
201.245
 11
201.172
 20
-13.475
 21
-13.961
  0
LINE
  8
0
 10
201.172
 11
200.958
 20
-13.961
 21
-14.404
  0
LINE
  8
0
 10
200.958
 11
200.624
 20
-14.404
 21
-14.765
  0
LINE
  8
0
 10
200.624
 11
200.198
 20
-14.765
 21
-15.011
  0
LINE
  8
0
 10
200.198
 11
199.718
 20
-15.011
 21
-15.12
  0
LINE
  8
0
 10
199.718
 11
199.228
 20
-15.12
 21
-15.084
  0
LINE
  8
0
 10
199.228
 11
198.77
 20
-15.084
 21
-14.904
  0
LINE
  8
0
 10
198.77
 11
198.385
 20
-14.904
 21
-14.597
  0
LINE
  8
0
 10
198.385
 11
198.108
 20
-14.597
 21
-14.191
  0
LINE
  8
0
 10
198.108
 11
197.963
 20
-14.191
 21
-13.721
  0
LINE
  8
0
 10
197.963
 11
197.963
 20
13.229
 21
13.721
  0
LINE
  8
0
 10
197.963
 11
198.108
 20
13.721
 21
14.191
  0
LINE
  8
0
 10
198.108
 11
198.385
 20
14.191
 21
14.597
  0
LINE
  8
0
 10
198.385
 11
198.77
 20
14.597
 21
14.904
  0
LINE
  8
0
 10
198.77
 11
199.228
 20
14.904
 21
15.084
  0
LINE
  8
0
 10
199.228
 11
199.718
 20
15.084
 21
15.12
  0
LINE
  8
0
 10
199.718
 11
200.198
 20
15.12
 21
15.011
  0
LINE
  8
0
 10
200.198
 11
200.624
 20
15.011
 21
14.765
  0
LINE
  8
0
 10
200.624
 11
200.958
 20
14.765
 21
14.404
  0
LINE
  8
0
 10
200.958
 11
201.172
 20
14.404
 21
13.961
  0
LINE
  8
0
 10
201.172
 11
201.245
 20
13.961
 21
13.475
  0
LINE
  8
0
 10
201.245
 11
201.172
 20
13.475
 21
12.989
  0
LINE
  8
0
 10
201.172
 11
200.958
 20
12.989
 21
12.546
  0
LINE
  8
0
 10
200.958
 11
200.624
 20
12.546
 21
12.185
  0
LINE
  8
0
 10
200.624
 11
200.198
 20
12.185
 21
11.939
  0
LINE
  8
0
 10
200.198
 11
199.718
 20
11.939
 21
11.83
  0
LINE
  8
0
 10
199.718
 11
199.228
 20
11.83
 21
11.866
  0
LINE
  8
0
 10
199.228
 11
198.77
 20
11.866
 21
12.046
  0
LINE
  8
0
 10
198.77
 11
198.385
 20
12.046
 21
12.353
  0
LINE
  8
0
 10
198.385
 11
198.108
 20
12.353
 21
12.759
  0
LINE
  8
0
 10
198.108
 11
197.963
 20
12.759
 21
13.229
  0
ENDSEC
  0
SECTION
  2
OBJECTS
  0
DICTIONARY
  0
ENDSEC
  0
EOF
