  0
SECTION
  2
BLOCKS
  0
ENDSEC
  0
SECTION
  2
ENTITIES
  0
LINE
  8
0
 10
-210.998
 11
-210.994
 20
-13.6
 21
13.724
  0
LINE
  8
0
 10
-210.994
 11
-210.944
 20
13.724
 21
14.22
  0
LINE
  8
0
 10
-210.944
 11
-210.845
 20
14.22
 21
14.709
  0
LINE
  8
0
 10
-210.845
 11
-210.698
 20
14.709
 21
15.185
  0
LINE
  8
0
 10
-210.698
 11
-210.505
 20
15.185
 21
15.644
  0
LINE
  8
0
 10
-210.505
 11
-210.266
 20
15.644
 21
16.082
  0
LINE
  8
0
 10
-210.266
 11
-209.986
 20
16.082
 21
16.494
  0
LINE
  8
0
 10
-209.986
 11
-209.665
 20
16.494
 21
16.876
  0
LINE
  8
0
 10
-209.665
 11
-209.308
 20
16.876
 21
17.224
  0
LINE
  8
0
 10
-209.308
 11
-208.919
 20
17.224
 21
17.535
  0
LINE
  8
0
 10
-208.919
 11
-208.5
 20
17.535
 21
17.805
  0
LINE
  8
0
 10
-208.5
 11
-208.056
 20
17.805
 21
18.033
  0
LINE
  8
0
 10
-208.056
 11
-207.592
 20
18.033
 21
18.215
  0
LINE
  8
0
 10
-207.592
 11
-207.113
 20
18.215
 21
18.35
  0
LINE
  8
0
 10
-207.113
 11
-206.622
 20
18.35
 21
18.436
  0
LINE
  8
0
 10
-206.622
 11
-206.125
 20
18.436
 21
18.473
  0
LINE
  8
0
 10
-206.125
 11
206.249
 20
18.473
 21
18.469
  0
LINE
  8
0
 10
206.249
 11
206.745
 20
18.469
 21
18.419
  0
LINE
  8
0
 10
206.745
 11
207.234
 20
18.419
 21
18.32
  0
LINE
  8
0
 10
207.234
 11
207.71
 20
18.32
 21
18.173
  0
LINE
  8
0
 10
207.71
 11
208.169
 20
18.173
 21
17.98
  0
LINE
  8
0
 10
208.169
 11
208.607
 20
17.98
 21
17.741
  0
LINE
  8
0
 10
208.607
 11
209.019
 20
17.741
 21
17.461
  0
LINE
  8
0
 10
209.019
 11
209.401
 20
17.461
 21
17.14
  0
LINE
  8
0
 10
209.401
 11
209.749
 20
17.14
 21
16.783
  0
LINE
  8
0
 10
209.749
 11
210.06
 20
16.783
 21
16.394
  0
LINE
  8
0
 10
210.06
 11
210.33
 20
16.394
 21
15.975
  0
LINE
  8
0
 10
210.33
 11
210.558
 20
15.975
 21
15.531
  0
LINE
  8
0
 10
210.558
 11
210.74
 20
15.531
 21
15.067
  0
LINE
  8
0
 10
210.74
 11
210.875
 20
15.067
 21
14.588
  0
LINE
  8
0
 10
210.875
 11
210.961
 20
14.588
 21
14.097
  0
LINE
  8
0
 10
210.961
 11
210.998
 20
14.097
 21
13.6
  0
LINE
  8
0
 10
210.998
 11
210.994
 20
13.6
 21
-13.724
  0
LINE
  8
0
 10
210.994
 11
210.944
 20
-13.724
 21
-14.22
  0
LINE
  8
0
 10
210.944
 11
210.845
 20
-14.22
 21
-14.709
  0
LINE
  8
0
 10
210.845
 11
210.698
 20
-14.709
 21
-15.185
  0
LINE
  8
0
 10
210.698
 11
210.505
 20
-15.185
 21
-15.644
  0
LINE
  8
0
 10
210.505
 11
210.266
 20
-15.644
 21
-16.082
  0
LINE
  8
0
 10
210.266
 11
209.986
 20
-16.082
 21
-16.494
  0
LINE
  8
0
 10
209.986
 11
209.665
 20
-16.494
 21
-16.876
  0
LINE
  8
0
 10
209.665
 11
209.308
 20
-16.876
 21
-17.224
  0
LINE
  8
0
 10
209.308
 11
208.919
 20
-17.224
 21
-17.535
  0
LINE
  8
0
 10
208.919
 11
208.5
 20
-17.535
 21
-17.805
  0
LINE
  8
0
 10
208.5
 11
208.056
 20
-17.805
 21
-18.033
  0
LINE
  8
0
 10
208.056
 11
207.592
 20
-18.033
 21
-18.215
  0
LINE
  8
0
 10
207.592
 11
207.113
 20
-18.215
 21
-18.35
  0
LINE
  8
0
 10
207.113
 11
206.622
 20
-18.35
 21
-18.436
  0
LINE
  8
0
 10
206.622
 11
206.125
 20
-18.436
 21
-18.473
  0
LINE
  8
0
 10
206.125
 11
-206.249
 20
-18.473
 21
-18.469
  0
LINE
  8
0
 10
-206.249
 11
-206.745
 20
-18.469
 21
-18.419
  0
LINE
  8
0
 10
-206.745
 11
-207.234
 20
-18.419
 21
-18.32
  0
LINE
  8
0
 10
-207.234
 11
-207.71
 20
-18.32
 21
-18.173
  0
LINE
  8
0
 10
-207.71
 11
-208.169
 20
-18.173
 21
-17.98
  0
LINE
  8
0
 10
-208.169
 11
-208.607
 20
-17.98
 21
-17.741
  0
LINE
  8
0
 10
-208.607
 11
-209.019
 20
-17.741
 21
-17.461
  0
LINE
  8
0
 10
-209.019
 11
-209.401
 20
-17.461
 21
-17.14
  0
LINE
  8
0
 10
-209.401
 11
-209.749
 20
-17.14
 21
-16.783
  0
LINE
  8
0
 10
-209.749
 11
-210.06
 20
-16.783
 21
-16.394
  0
LINE
  8
0
 10
-210.06
 11
-210.33
 20
-16.394
 21
-15.975
  0
LINE
  8
0
 10
-210.33
 11
-210.558
 20
-15.975
 21
-15.531
  0
LINE
  8
0
 10
-210.558
 11
-210.74
 20
-15.531
 21
-15.067
  0
LINE
  8
0
 10
-210.74
 11
-210.875
 20
-15.067
 21
-14.588
  0
LINE
  8
0
 10
-210.875
 11
-210.961
 20
-14.588
 21
-14.097
  0
LINE
  8
0
 10
-210.961
 11
-210.998
 20
-14.097
 21
-13.6
  0
LINE
  8
0
 10
-194.227
 11
-194.227
 20
-13.721
 21
-13.229
  0
LINE
  8
0
 10
-194.227
 11
-194.082
 20
-13.229
 21
-12.759
  0
LINE
  8
0
 10
-194.082
 11
-193.805
 20
-12.759
 21
-12.353
  0
LINE
  8
0
 10
-193.805
 11
-193.42
 20
-12.353
 21
-12.046
  0
LINE
  8
0
 10
-193.42
 11
-192.962
 20
-12.046
 21
-11.866
  0
LINE
  8
0
 10
-192.962
 11
-192.472
 20
-11.866
 21
-11.83
  0
LINE
  8
0
 10
-192.472
 11
-191.992
 20
-11.83
 21
-11.939
  0
LINE
  8
0
 10
-191.992
 11
-191.566
 20
-11.939
 21
-12.185
  0
LINE
  8
0
 10
-191.566
 11
-191.232
 20
-12.185
 21
-12.546
  0
LINE
  8
0
 10
-191.232
 11
-191.018
 20
-12.546
 21
-12.989
  0
LINE
  8
0
 10
-191.018
 11
-190.945
 20
-12.989
 21
-13.475
  0
LINE
  8
0
 10
-190.945
 11
-191.018
 20
-13.475
 21
-13.961
  0
LINE
  8
0
 10
-191.018
 11
-191.232
 20
-13.961
 21
-14.404
  0
LINE
  8
0
 10
-191.232
 11
-191.566
 20
-14.404
 21
-14.765
  0
LINE
  8
0
 10
-191.566
 11
-191.992
 20
-14.765
 21
-15.011
  0
LINE
  8
0
 10
-191.992
 11
-192.472
 20
-15.011
 21
-15.12
  0
LINE
  8
0
 10
-192.472
 11
-192.962
 20
-15.12
 21
-15.084
  0
LINE
  8
0
 10
-192.962
 11
-193.42
 20
-15.084
 21
-14.904
  0
LINE
  8
0
 10
-193.42
 11
-193.805
 20
-14.904
 21
-14.597
  0
LINE
  8
0
 10
-193.805
 11
-194.082
 20
-14.597
 21
-14.191
  0
LINE
  8
0
 10
-194.082
 11
-194.227
 20
-14.191
 21
-13.721
  0
LINE
  8
0
 10
-194.227
 11
-194.227
 20
13.229
 21
13.721
  0
LINE
  8
0
 10
-194.227
 11
-194.082
 20
13.721
 21
14.191
  0
LINE
  8
0
 10
-194.082
 11
-193.805
 20
14.191
 21
14.597
  0
LINE
  8
0
 10
-193.805
 11
-193.42
 20
14.597
 21
14.904
  0
LINE
  8
0
 10
-193.42
 11
-192.962
 20
14.904
 21
15.084
  0
LINE
  8
0
 10
-192.962
 11
-192.472
 20
15.084
 21
15.12
  0
LINE
  8
0
 10
-192.472
 11
-191.992
 20
15.12
 21
15.011
  0
LINE
  8
0
 10
-191.992
 11
-191.566
 20
15.011
 21
14.765
  0
LINE
  8
0
 10
-191.566
 11
-191.232
 20
14.765
 21
14.404
  0
LINE
  8
0
 10
-191.232
 11
-191.018
 20
14.404
 21
13.961
  0
LINE
  8
0
 10
-191.018
 11
-190.945
 20
13.961
 21
13.475
  0
LINE
  8
0
 10
-190.945
 11
-191.018
 20
13.475
 21
12.989
  0
LINE
  8
0
 10
-191.018
 11
-191.232
 20
12.989
 21
12.546
  0
LINE
  8
0
 10
-191.232
 11
-191.566
 20
12.546
 21
12.185
  0
LINE
  8
0
 10
-191.566
 11
-191.992
 20
12.185
 21
11.939
  0
LINE
  8
0
 10
-191.992
 11
-192.472
 20
11.939
 21
11.83
  0
LINE
  8
0
 10
-192.472
 11
-192.962
 20
11.83
 21
11.866
  0
LINE
  8
0
 10
-192.962
 11
-193.42
 20
11.866
 21
12.046
  0
LINE
  8
0
 10
-193.42
 11
-193.805
 20
12.046
 21
12.353
  0
LINE
  8
0
 10
-193.805
 11
-194.082
 20
12.353
 21
12.759
  0
LINE
  8
0
 10
-194.082
 11
-194.227
 20
12.759
 21
13.229
  0
LINE
  8
0
 10
-192.17
 11
-192.17
 20
-0.247
 21
0.247
  0
LINE
  8
0
 10
-192.17
 11
-192.009
 20
0.247
 21
0.714
  0
LINE
  8
0
 10
-192.009
 11
-191.706
 20
0.714
 21
1.104
  0
LINE
  8
0
 10
-191.706
 11
-191.293
 20
1.104
 21
1.374
  0
LINE
  8
0
 10
-191.293
 11
-190.814
 20
1.374
 21
1.495
  0
LINE
  8
0
 10
-190.814
 11
-190.322
 20
1.495
 21
1.454
  0
LINE
  8
0
 10
-190.322
 11
-189.87
 20
1.454
 21
1.256
  0
LINE
  8
0
 10
-189.87
 11
-189.506
 20
1.256
 21
0.921
  0
LINE
  8
0
 10
-189.506
 11
-189.271
 20
0.921
 21
0.487
  0
LINE
  8
0
 10
-189.271
 11
-189.19
 20
0.487
 21
0
  0
LINE
  8
0
 10
-189.19
 11
-189.271
 20
0
 21
-0.487
  0
LINE
  8
0
 10
-189.271
 11
-189.506
 20
-0.487
 21
-0.921
  0
LINE
  8
0
 10
-189.506
 11
-189.87
 20
-0.921
 21
-1.256
  0
LINE
  8
0
 10
-189.87
 11
-190.322
 20
-1.256
 21
-1.454
  0
LINE
  8
0
 10
-190.322
 11
-190.814
 20
-1.454
 21
-1.495
  0
LINE
  8
0
 10
-190.814
 11
-191.293
 20
-1.495
 21
-1.374
  0
LINE
  8
0
 10
-191.293
 11
-191.706
 20
-1.374
 21
-1.104
  0
LINE
  8
0
 10
-191.706
 11
-192.009
 20
-1.104
 21
-0.714
  0
LINE
  8
0
 10
-192.009
 11
-192.17
 20
-0.714
 21
-0.247
  0
LINE
  8
0
 10
189.21
 11
189.21
 20
-0.247
 21
0.247
  0
LINE
  8
0
 10
189.21
 11
189.371
 20
0.247
 21
0.714
  0
LINE
  8
0
 10
189.371
 11
189.674
 20
0.714
 21
1.104
  0
LINE
  8
0
 10
189.674
 11
190.087
 20
1.104
 21
1.374
  0
LINE
  8
0
 10
190.087
 11
190.566
 20
1.374
 21
1.495
  0
LINE
  8
0
 10
190.566
 11
191.058
 20
1.495
 21
1.454
  0
LINE
  8
0
 10
191.058
 11
191.51
 20
1.454
 21
1.256
  0
LINE
  8
0
 10
191.51
 11
191.874
 20
1.256
 21
0.921
  0
LINE
  8
0
 10
191.874
 11
192.109
 20
0.921
 21
0.487
  0
LINE
  8
0
 10
192.109
 11
192.19
 20
0.487
 21
0
  0
LINE
  8
0
 10
192.19
 11
192.109
 20
0
 21
-0.487
  0
LINE
  8
0
 10
192.109
 11
191.874
 20
-0.487
 21
-0.921
  0
LINE
  8
0
 10
191.874
 11
191.51
 20
-0.921
 21
-1.256
  0
LINE
  8
0
 10
191.51
 11
191.058
 20
-1.256
 21
-1.454
  0
LINE
  8
0
 10
191.058
 11
190.566
 20
-1.454
 21
-1.495
  0
LINE
  8
0
 10
190.566
 11
190.087
 20
-1.495
 21
-1.374
  0
LINE
  8
0
 10
190.087
 11
189.674
 20
-1.374
 21
-1.104
  0
LINE
  8
0
 10
189.674
 11
189.371
 20
-1.104
 21
-0.714
  0
LINE
  8
0
 10
189.371
 11
189.21
 20
-0.714
 21
-0.247
  0
LINE
  8
0
 10
190.963
 11
190.963
 20
-13.721
 21
-13.229
  0
LINE
  8
0
 10
190.963
 11
191.108
 20
-13.229
 21
-12.759
  0
LINE
  8
0
 10
191.108
 11
191.385
 20
-12.759
 21
-12.353
  0
LINE
  8
0
 10
191.385
 11
191.77
 20
-12.353
 21
-12.046
  0
LINE
  8
0
 10
191.77
 11
192.228
 20
-12.046
 21
-11.866
  0
LINE
  8
0
 10
192.228
 11
192.718
 20
-11.866
 21
-11.83
  0
LINE
  8
0
 10
192.718
 11
193.198
 20
-11.83
 21
-11.939
  0
LINE
  8
0
 10
193.198
 11
193.624
 20
-11.939
 21
-12.185
  0
LINE
  8
0
 10
193.624
 11
193.958
 20
-12.185
 21
-12.546
  0
LINE
  8
0
 10
193.958
 11
194.172
 20
-12.546
 21
-12.989
  0
LINE
  8
0
 10
194.172
 11
194.245
 20
-12.989
 21
-13.475
  0
LINE
  8
0
 10
194.245
 11
194.172
 20
-13.475
 21
-13.961
  0
LINE
  8
0
 10
194.172
 11
193.958
 20
-13.961
 21
-14.404
  0
LINE
  8
0
 10
193.958
 11
193.624
 20
-14.404
 21
-14.765
  0
LINE
  8
0
 10
193.624
 11
193.198
 20
-14.765
 21
-15.011
  0
LINE
  8
0
 10
193.198
 11
192.718
 20
-15.011
 21
-15.12
  0
LINE
  8
0
 10
192.718
 11
192.228
 20
-15.12
 21
-15.084
  0
LINE
  8
0
 10
192.228
 11
191.77
 20
-15.084
 21
-14.904
  0
LINE
  8
0
 10
191.77
 11
191.385
 20
-14.904
 21
-14.597
  0
LINE
  8
0
 10
191.385
 11
191.108
 20
-14.597
 21
-14.191
  0
LINE
  8
0
 10
191.108
 11
190.963
 20
-14.191
 21
-13.721
  0
LINE
  8
0
 10
190.963
 11
190.963
 20
13.229
 21
13.721
  0
LINE
  8
0
 10
190.963
 11
191.108
 20
13.721
 21
14.191
  0
LINE
  8
0
 10
191.108
 11
191.385
 20
14.191
 21
14.597
  0
LINE
  8
0
 10
191.385
 11
191.77
 20
14.597
 21
14.904
  0
LINE
  8
0
 10
191.77
 11
192.228
 20
14.904
 21
15.084
  0
LINE
  8
0
 10
192.228
 11
192.718
 20
15.084
 21
15.12
  0
LINE
  8
0
 10
192.718
 11
193.198
 20
15.12
 21
15.011
  0
LINE
  8
0
 10
193.198
 11
193.624
 20
15.011
 21
14.765
  0
LINE
  8
0
 10
193.624
 11
193.958
 20
14.765
 21
14.404
  0
LINE
  8
0
 10
193.958
 11
194.172
 20
14.404
 21
13.961
  0
LINE
  8
0
 10
194.172
 11
194.245
 20
13.961
 21
13.475
  0
LINE
  8
0
 10
194.245
 11
194.172
 20
13.475
 21
12.989
  0
LINE
  8
0
 10
194.172
 11
193.958
 20
12.989
 21
12.546
  0
LINE
  8
0
 10
193.958
 11
193.624
 20
12.546
 21
12.185
  0
LINE
  8
0
 10
193.624
 11
193.198
 20
12.185
 21
11.939
  0
LINE
  8
0
 10
193.198
 11
192.718
 20
11.939
 21
11.83
  0
LINE
  8
0
 10
192.718
 11
192.228
 20
11.83
 21
11.866
  0
LINE
  8
0
 10
192.228
 11
191.77
 20
11.866
 21
12.046
  0
LINE
  8
0
 10
191.77
 11
191.385
 20
12.046
 21
12.353
  0
LINE
  8
0
 10
191.385
 11
191.108
 20
12.353
 21
12.759
  0
LINE
  8
0
 10
191.108
 11
190.963
 20
12.759
 21
13.229
  0
ENDSEC
  0
SECTION
  2
OBJECTS
  0
DICTIONARY
  0
ENDSEC
  0
EOF
